<?xml version="1.0" encoding="UTF-8" standalone="no"?>
<!-- Created with Inkscape (http://www.inkscape.org/) -->

<svg
   width="58.227543mm"
   height="46.702293mm"
   viewBox="0 0 58.227543 46.702293"
   version="1.1"
   id="svg5"
   inkscape:version="1.1.1 (3bf5ae0d25, 2021-09-20)"
   sodipodi:docname="tilt_phone.svg"
   xmlns:inkscape="http://www.inkscape.org/namespaces/inkscape"
   xmlns:sodipodi="http://sodipodi.sourceforge.net/DTD/sodipodi-0.dtd"
   xmlns="http://www.w3.org/2000/svg"
   xmlns:svg="http://www.w3.org/2000/svg">
  <sodipodi:namedview
     id="namedview7"
     pagecolor="#ffffff"
     bordercolor="#666666"
     borderopacity="1.0"
     inkscape:pageshadow="2"
     inkscape:pageopacity="0.0"
     inkscape:pagecheckerboard="0"
     inkscape:document-units="mm"
     showgrid="false"
     inkscape:zoom="0.46929649"
     inkscape:cx="-338.80501"
     inkscape:cy="-297.25345"
     inkscape:window-width="1920"
     inkscape:window-height="1009"
     inkscape:window-x="-8"
     inkscape:window-y="-8"
     inkscape:window-maximized="1"
     inkscape:current-layer="layer1" />
  <defs
     id="defs2" />
  <g
     inkscape:label="Layer 1"
     inkscape:groupmode="layer"
     id="layer1"
     transform="translate(-82.510396,-174.17314)">
    <path
       style="fill:#0c6ae6;fill-opacity:1;stroke-width:1"
       d="m 85.298123,220.38698 c -1.22439,-0.5651 -2.0946,-1.43454 -2.49591,-2.49372 -0.38909,-1.0269 -0.38909,-25.79385 0,-26.82075 0.40131,-1.05918 1.27152,-1.92862 2.49591,-2.49372 1.00554,-0.46408 2.31896,-0.48845 26.326037,-0.48845 24.00709,0 25.32051,0.0244 26.32605,0.48845 1.22439,0.5651 2.0946,1.43454 2.49591,2.49372 0.38909,1.0269 0.38909,25.79385 0,26.82075 -0.40131,1.05918 -1.27152,1.92862 -2.49591,2.49372 -1.00554,0.46408 -2.31896,0.48845 -26.32605,0.48845 -24.007077,0 -25.320497,-0.0244 -26.326037,-0.48845 z m 46.169787,-15.9041 V 192.84122 H 111.62416 91.780423 v 11.64166 11.64167 h 19.843737 19.84375 z m -42.842137,1.60786 c 0.52784,-0.52784 0.7734,-1.03834 0.7734,-1.60786 0,-0.98529 -1.23662,-2.38125 -2.10946,-2.38125 -2.4041,0 -3.42224,3.24543 -1.36821,4.36129 1.07338,0.58312 1.85679,0.4753 2.70427,-0.37218 z m 35.325367,-21.54046 c -4.81384,-1.25995 -5.21799,-1.54252 -4.00985,-2.80356 l 0.76166,-0.795 -1.24668,-0.53439 c -2.90185,-1.24388 -4.12309,-1.46713 -7.9644,-1.45598 -3.34661,0.01 -3.90848,0.0816 -5.82083,0.74416 -2.70027,0.93561 -4.56842,1.98026 -6.828417,3.81838 l -1.80134,1.46507 -1.57067,-1.55428 -1.57067,-1.55428 0.99076,-1.02677 c 2.22674,-2.30768 5.774657,-4.38999 9.457417,-5.55067 6.11284,-1.92656 12.6515,-1.37621 18.42818,1.55105 l 1.35133,0.68477 1.16262,-1.14103 c 0.93631,-0.91892 1.24817,-1.08706 1.60213,-0.86379 0.49534,0.31246 2.86202,9.15619 2.61945,9.78831 -0.20933,0.54552 -0.88567,0.45163 -5.56069,-0.77199 z"
       id="path854" />
  </g>
</svg>
