<?xml version="1.0" encoding="UTF-8" standalone="no"?>
<!-- Created with Inkscape (http://www.inkscape.org/) -->

<svg
   width="1123"
   height="626"
   viewBox="0 0 297.12707 165.62917"
   version="1.1"
   id="svg5"
   sodipodi:docname="small_logo_no_background.svg"
   inkscape:version="1.1.1 (3bf5ae0d25, 2021-09-20)"
   inkscape:export-filename="C:\Users\garfu\OneDrive - BYU-Idaho\Documents\GitHub\wdd131\unit4\siteplan\images\banner_logo_with_background.png"
   inkscape:export-xdpi="96"
   inkscape:export-ydpi="96"
   xmlns:inkscape="http://www.inkscape.org/namespaces/inkscape"
   xmlns:sodipodi="http://sodipodi.sourceforge.net/DTD/sodipodi-0.dtd"
   xmlns:xlink="http://www.w3.org/1999/xlink"
   xmlns="http://www.w3.org/2000/svg"
   xmlns:svg="http://www.w3.org/2000/svg">
  <sodipodi:namedview
     id="namedview7"
     pagecolor="#ffffff"
     bordercolor="#666666"
     borderopacity="1.0"
     inkscape:pageshadow="2"
     inkscape:pageopacity="0.0"
     inkscape:pagecheckerboard="0"
     inkscape:document-units="mm"
     showgrid="false"
     units="px"
     width="500px"
     inkscape:zoom="0.55949999"
     inkscape:cx="365.50492"
     inkscape:cy="226.09473"
     inkscape:window-width="2560"
     inkscape:window-height="1369"
     inkscape:window-x="-8"
     inkscape:window-y="-8"
     inkscape:window-maximized="1"
     inkscape:current-layer="g56684" />
  <defs
     id="defs2">
    <inkscape:path-effect
       effect="powermask"
       id="path-effect31233"
       is_visible="true"
       lpeversion="1"
       uri="#mask-powermask-path-effect31233"
       invert="false"
       hide_mask="false"
       background="true"
       background_color="#ffffffff" />
    <mask
       maskUnits="userSpaceOnUse"
       id="mask-powermask-path-effect31233">
      <path
         style="fill:#222222;stroke-width:0.264583"
         d="m -168.14781,212.73124 v -31.22083 h 29.36875 29.36875 v 31.22083 31.22084 h -29.36875 -29.36875 z m 27.41347,22.71156 2.55567,-1.36553 2.74569,1.36553 c 1.51013,0.75104 2.8038,1.36553 2.87481,1.36553 0.24449,0 0.12918,-1.46069 -0.29983,-3.79816 l -0.43002,-2.34295 2.18201,-2.1934 c 1.20011,-1.20638 2.11149,-2.30752 2.02529,-2.44699 -0.0862,-0.13947 -1.26179,-0.3983 -2.61243,-0.57517 -1.35064,-0.17687 -2.66756,-0.38202 -2.9265,-0.45588 -0.27112,-0.0773 -1.02959,-1.24783 -1.78835,-2.75983 -0.72465,-1.44405 -1.47057,-2.62554 -1.65759,-2.62554 -0.18702,0 -0.87054,1.08702 -1.51894,2.4156 -0.6484,1.32858 -1.41703,2.56507 -1.70807,2.74775 -0.29104,0.18269 -1.69269,0.48056 -3.11477,0.66194 -1.42208,0.18138 -2.65591,0.44355 -2.74184,0.5826 -0.0859,0.13904 0.80969,1.20714 1.99029,2.37355 1.18059,1.16641 2.14636,2.3169 2.14616,2.55663 -1.9e-4,0.23974 -0.17863,1.44792 -0.39651,2.68485 -0.46463,2.63769 -0.48812,3.175 -0.1388,3.175 0.14193,0 1.40811,-0.61449 2.81373,-1.36553 z m -13.65514,-32.36885 c 1.30388,-0.65484 2.55278,-1.19062 2.77535,-1.19062 0.22258,0 1.3956,0.53578 2.60673,1.19062 2.66036,1.43843 3.21566,1.51523 2.99546,0.41427 -0.0854,-0.427 -0.30312,-1.79896 -0.48383,-3.0488 l -0.32856,-2.27244 2.03826,-2.05028 c 1.12104,-1.12766 2.03826,-2.18573 2.03826,-2.35126 0,-0.16919 -0.83987,-0.43445 -1.91823,-0.60584 -4.45191,-0.70756 -3.86809,-0.34974 -5.39643,-3.30742 -0.74884,-1.44918 -1.49497,-2.67936 -1.65807,-2.73372 -0.1631,-0.0544 -0.81298,1.01385 -1.44419,2.37383 -0.6312,1.35997 -1.32196,2.61734 -1.53502,2.79417 -0.28953,0.24028 -4.93966,1.1302 -5.90569,1.1302 -0.51504,0 0.16072,0.94671 1.98412,2.77962 l 2.11815,2.12921 -0.53065,2.88829 c -0.29186,1.58855 -0.53066,2.92485 -0.53066,2.96954 0,0.3111 1.13929,-0.087 3.175,-1.10937 z"
         id="path31231" />
    </mask>
  </defs>
  <g
     inkscape:label="Layer 1"
     inkscape:groupmode="layer"
     id="layer1"
     transform="translate(597.98773,6.8090196)">
    <g
       id="g56684">
      <path
         id="rect23050"
         style="fill:#151515;fill-opacity:1;stroke-width:0.717755;stroke-linecap:round;stroke-linejoin:round;paint-order:fill markers stroke;stop-color:#000000"
         d="m -597.98773,-6.8090196 h 297.12709 V 158.82015 h -297.12709 z" />
      <g
         id="g15605"
         transform="matrix(1.048322,0,0,1.048322,16.234042,-5.8679193)"
         style="fill:#f2f2f2;fill-opacity:1">
        <path
           style="fill:#f2f2f2;fill-opacity:1;stroke-width:0.117713"
           d="m -347.46459,137.71528 c -0.14935,-0.15172 -0.0785,-0.97655 0.27121,-3.16545 0.19272,-1.20557 0.35039,-2.3256 0.35039,-2.48895 0,-0.36847 -0.60115,-1.14985 -2.14921,-2.79353 -1.8634,-1.97845 -2.05874,-2.27118 -1.62779,-2.43914 0.10665,-0.0414 1.14465,-0.2324 2.30664,-0.42404 3.00327,-0.49531 3.21407,-0.57109 3.71146,-1.3345 0.22338,-0.34281 0.78455,-1.34541 1.24707,-2.22797 0.46251,-0.88255 0.97085,-1.76342 1.12966,-1.95751 l 0.28874,-0.35292 0.33937,0.39815 c 0.18655,0.21898 0.69433,1.0732 1.12816,1.89822 1.07311,2.04074 1.6687,2.94897 2.027,3.09109 0.16498,0.0656 0.90433,0.20358 1.64302,0.307 1.84498,0.25827 3.2742,0.52787 3.52709,0.66536 0.19554,0.10636 0.19802,0.14184 0.0324,0.46699 -0.0984,0.19358 -1.02718,1.23461 -2.06364,2.3134 l -1.88444,1.96143 0.30745,1.74542 c 0.39271,2.22953 0.59645,3.87869 0.50812,4.11262 -0.0381,0.10089 -0.15014,0.18349 -0.24912,0.18349 -0.099,0 -1.31757,-0.56054 -2.70821,-1.24569 -1.39063,-0.68512 -2.61608,-1.24568 -2.72325,-1.24568 -0.10719,0 -0.74272,0.29908 -1.41237,0.66466 -1.58906,0.86746 -3.37359,1.77542 -3.67863,1.87164 -0.13314,0.0422 -0.27766,0.0401 -0.32117,-0.004 z"
           id="path44274" />
        <path
           style="fill:#f2f2f2;fill-opacity:1;stroke-width:0.115506"
           d="m -338.06795,106.51998 c -0.1476,-0.14762 -0.0776,-0.95077 0.26812,-3.08187 0.19047,-1.17371 0.3465,-2.26416 0.3465,-2.4232 0,-0.3586 -0.59454,-1.11951 -2.12552,-2.719758 -1.84288,-1.926239 -2.03606,-2.211207 -1.60985,-2.374753 0.10548,-0.04029 1.13202,-0.22636 2.28121,-0.412835 2.97017,-0.48221 3.17866,-0.556016 3.67054,-1.299275 0.22086,-0.333683 0.77589,-1.309861 1.23331,-2.169121 0.45741,-0.859223 0.9602,-1.716837 1.11723,-1.905801 l 0.2857,-0.343573 0.33551,0.3876 c 0.18461,0.213175 0.68671,1.044855 1.11577,1.848111 1.0613,1.98686 1.65029,2.8711 2.00462,3.009446 0.163,0.06373 0.89439,0.198158 1.62494,0.298886 1.82467,0.251269 3.23815,0.513966 3.48826,0.647806 0.19338,0.103291 0.19595,0.138088 0.033,0.454665 -0.0974,0.188635 -1.01588,1.201991 -2.04088,2.252305 l -1.86373,1.909637 0.30402,1.69934 c 0.38841,2.17066 0.5899,3.77625 0.50251,4.00401 -0.0377,0.0982 -0.14872,0.17875 -0.24651,0.17875 -0.0978,0 -1.30305,-0.54577 -2.67837,-1.2128 -1.37531,-0.66703 -2.58726,-1.21279 -2.69327,-1.21279 -0.10585,0 -0.73453,0.29119 -1.39682,0.6471 -1.57152,0.84457 -3.33638,1.72853 -3.63805,1.82222 -0.13149,0.0406 -0.27471,0.0392 -0.31757,-0.004 z"
           id="path44356" />
      </g>
      <g
         id="g15498"
         transform="matrix(1.504779,0,0,1.504779,-543.96253,5.7236264)">
        <g
           id="g28628"
           transform="translate(0.87914679)">
          <g
             id="g15486"
             transform="translate(-8.4666671)">
            <path
               d="m 38.819358,84.505814 h 15.795714 l 8.121382,-8.121373 V 60.588728 L 54.615072,52.467346 H 40.38403 v -12.66637 h 12.666369 v 5.960641 h 9.686055 V 30.114923 h -9.686055 v 2.160732 l -2.160731,-2.160732 h -12.07031 l -8.121383,8.121381 v 15.795714 l 8.121383,8.121381 H 53.050399 V 74.819768 H 40.38403 v -7.450807 h -9.686055 v 9.01548 z M 29.952896,76.682471 V 66.623882 h 11.176213 v 7.450807 H 52.30532 V 62.898478 H 38.521328 l -8.568432,-8.56843 V 37.938274 l 8.568432,-8.56843 h 12.666369 l 1.117623,1.117622 V 29.369844 H 63.481533 V 46.506697 H 52.30532 V 40.546055 H 41.129109 v 11.176212 h 13.783992 l 8.568432,8.56843 v 16.391774 l -8.568432,8.568431 H 38.521328 Z m 0.745079,-0.29803 v -9.01548 h 9.686055 v 7.450807 H 53.050399 V 62.153399 H 38.819358 L 30.697975,54.032018 V 38.236304 l 8.121383,-8.121381 h 12.07031 l 2.160731,2.160732 v -2.160732 h 9.686055 V 45.761617 H 53.050399 V 39.800976 H 40.38403 v 12.66637 h 14.231042 l 8.121382,8.121382 v 15.795713 l -8.121382,8.121373 H 38.819358 Z"
               id="path11789"
               sodipodi:nodetypes="ccccccccccccccccccccccccccccccccccccccccccccccccccccccccccccccccccccccccccc"
               style="font-size:83.0232px;line-height:1.25;font-family:'Varsity Two BC';-inkscape-font-specification:'Varsity Two BC, Normal';text-align:center;word-spacing:0px;text-anchor:middle;fill:#f2f2f2;fill-opacity:1;stroke:#f2f2f2;stroke-width:2.74464;stroke-miterlimit:4;stroke-dasharray:none;stroke-opacity:1" />
            <path
               d="m 38.819358,84.505822 h 15.795714 l 8.12138,-8.121382 V 60.588729 l -8.12138,-8.121381 H 40.384029 V 39.800975 h 12.666373 v 5.960646 h 9.68605 V 30.114924 h -9.68605 v 2.160735 l -2.160734,-2.160735 h -12.07031 l -8.12138,8.12138 v 15.795714 l 8.12138,8.12138 H 53.050402 V 74.819771 H 40.384029 V 67.368963 H 30.697978 V 76.38444 Z M 29.952897,76.682474 V 66.623883 H 41.12911 v 7.450808 H 52.305321 V 62.898479 H 38.521327 L 29.952897,54.33005 V 37.938273 l 8.56843,-8.568429 H 51.1877 l 1.117621,1.11762 v -1.11762 H 63.481533 V 46.506702 H 52.305321 V 40.546056 H 41.12911 v 11.176211 h 13.783994 l 8.568429,8.568429 v 16.391778 l -8.568429,8.568428 H 38.521327 Z m 1.862702,-0.745082 v -7.450807 h 7.450809 v 7.450807 H 54.168023 V 61.035776 H 39.266408 L 31.815599,53.584969 V 38.683354 l 7.450809,-7.450809 h 11.176211 l 3.725404,3.725405 V 31.232545 H 61.61883 V 44.644 H 54.168023 V 38.683354 H 39.266408 v 14.901615 h 14.901615 l 7.450807,7.450807 V 75.937392 L 54.168023,83.3882 H 39.266408 Z"
               id="path15267"
               style="font-size:83.0232px;line-height:1.25;font-family:'Varsity Two BC';-inkscape-font-specification:'Varsity Two BC, Normal';text-align:center;word-spacing:0px;text-anchor:middle;fill:#a63d40;stroke-width:1.86273" />
          </g>
          <g
             id="g15490"
             transform="translate(-2.2874537)">
            <path
               d="M 80.031564,84.770327 H 95.82727 l 8.12138,-8.121377 v -9.015478 h -9.686043 v 7.450806 H 81.596227 V 40.065484 h 12.66638 v 5.960646 h 9.686043 V 30.379434 h -9.686043 v 2.160734 L 92.101875,30.379434 H 80.031564 l -8.121382,8.12138 V 76.64895 Z M 71.165101,76.94698 V 38.202782 l 8.568428,-8.568428 h 12.66637 l 1.117627,1.117621 V 29.634354 H 104.69373 V 46.77121 H 93.517526 V 40.810565 H 82.341308 V 74.339198 H 93.517526 V 66.88839 h 11.176204 v 10.05859 l -8.568425,8.568428 H 79.733529 Z m 0.745081,-0.29803 V 38.500814 l 8.121382,-8.12138 h 12.070311 l 2.160732,2.160734 v -2.160734 h 9.686043 V 46.02613 h -9.686043 v -5.960646 h -12.66638 v 35.018794 h 12.66638 v -7.450806 h 9.686043 v 9.015478 l -8.12138,8.121377 H 80.031564 Z"
               id="path14547"
               style="font-size:111.648px;line-height:1.25;font-family:'Varsity Two BC';-inkscape-font-specification:'Varsity Two BC, Normal';text-align:center;word-spacing:0px;text-anchor:middle;fill:#f2f2f2;fill-opacity:1;stroke:#f2f2f2;stroke-width:2.74464;stroke-miterlimit:4;stroke-dasharray:none;stroke-opacity:1"
               sodipodi:nodetypes="ccccccccccccccccccccccccccccccccccccccccccccccccccccccccc" />
            <path
               d="m 80.031564,84.77033 h 15.795717 l 8.121379,-8.121382 v -9.015476 h -9.686053 v 7.450807 H 81.596238 V 40.065483 h 12.666369 v 5.960646 h 9.686053 V 30.379432 h -9.686053 v 2.160736 L 92.101875,30.379432 H 80.031564 l -8.121382,8.121381 V 76.648948 Z M 71.165101,76.946982 V 38.202781 l 8.568428,-8.568429 H 92.39991 l 1.117616,1.117621 V 29.634352 H 104.69373 V 46.77121 H 93.517526 V 40.810564 H 82.341319 V 74.339199 H 93.517526 V 66.888391 H 104.69373 V 76.946982 L 96.125316,85.51541 H 79.733529 Z M 73.02781,76.201901 V 38.947862 l 7.450801,-7.450808 h 11.176217 l 3.725406,3.725405 v -3.725405 h 7.450806 V 44.908509 H 95.380234 V 38.947862 H 80.478611 v 37.254039 h 14.901623 v -7.450808 h 7.450806 v 7.450808 l -7.450806,7.450807 H 80.478611 Z"
               id="path15269"
               style="font-size:83.0232px;line-height:1.25;font-family:'Varsity Two BC';-inkscape-font-specification:'Varsity Two BC, Normal';text-align:center;word-spacing:0px;text-anchor:middle;fill:#a63d40;stroke-width:1.86273" />
          </g>
        </g>
      </g>
      <g
         id="g15631"
         transform="matrix(-1.048322,0,0,1.048322,-902.84435,-6.1331911)"
         style="fill:#f2f2f2;fill-opacity:1">
        <path
           style="fill:#f2f2f2;fill-opacity:1;stroke-width:0.117713"
           d="m -347.46459,137.71528 c -0.14935,-0.15172 -0.0785,-0.97655 0.27121,-3.16545 0.19272,-1.20557 0.35039,-2.3256 0.35039,-2.48895 0,-0.36847 -0.60115,-1.14985 -2.14921,-2.79353 -1.8634,-1.97845 -2.05874,-2.27118 -1.62779,-2.43914 0.10665,-0.0414 1.14465,-0.2324 2.30664,-0.42404 3.00327,-0.49531 3.21407,-0.57109 3.71146,-1.3345 0.22338,-0.34281 0.78455,-1.34541 1.24707,-2.22797 0.46251,-0.88255 0.97085,-1.76342 1.12966,-1.95751 l 0.28874,-0.35292 0.33937,0.39815 c 0.18655,0.21898 0.69433,1.0732 1.12816,1.89822 1.07311,2.04074 1.6687,2.94897 2.027,3.09109 0.16498,0.0656 0.90433,0.20358 1.64302,0.307 1.84498,0.25827 3.2742,0.52787 3.52709,0.66536 0.19554,0.10636 0.19802,0.14184 0.0324,0.46699 -0.0984,0.19358 -1.02718,1.23461 -2.06364,2.3134 l -1.88444,1.96143 0.30745,1.74542 c 0.39271,2.22953 0.59645,3.87869 0.50812,4.11262 -0.0381,0.10089 -0.15014,0.18349 -0.24912,0.18349 -0.099,0 -1.31757,-0.56054 -2.70821,-1.24569 -1.39063,-0.68512 -2.61608,-1.24568 -2.72325,-1.24568 -0.10719,0 -0.74272,0.29908 -1.41237,0.66466 -1.58906,0.86746 -3.37359,1.77542 -3.67863,1.87164 -0.13314,0.0422 -0.27766,0.0401 -0.32117,-0.004 z"
           id="path15627" />
        <path
           style="fill:#f2f2f2;fill-opacity:1;stroke-width:0.115506"
           d="m -334.66072,106.64617 c -0.1476,-0.14762 -0.0776,-0.95077 0.26812,-3.08187 0.19047,-1.17371 0.3465,-2.26416 0.3465,-2.4232 0,-0.3586 -0.59454,-1.11951 -2.12552,-2.719754 -1.84288,-1.926239 -2.03606,-2.211207 -1.60985,-2.374753 0.10548,-0.04029 1.13202,-0.22636 2.28121,-0.412835 2.97017,-0.48221 3.17866,-0.556016 3.67054,-1.299275 0.22086,-0.333683 0.77589,-1.309861 1.23331,-2.169121 0.45741,-0.859223 0.9602,-1.716837 1.11723,-1.905801 l 0.2857,-0.343573 0.33551,0.3876 c 0.18461,0.213175 0.68671,1.044855 1.11577,1.848111 1.0613,1.98686 1.65029,2.8711 2.00462,3.009446 0.163,0.06373 0.89439,0.198158 1.62494,0.298886 1.82467,0.251269 3.23815,0.513966 3.48826,0.647806 0.19338,0.103291 0.19595,0.138088 0.033,0.454665 -0.0974,0.188635 -1.01588,1.201991 -2.04088,2.252305 l -1.86373,1.909633 0.30402,1.69934 c 0.38841,2.17066 0.5899,3.77625 0.50251,4.00401 -0.0377,0.0982 -0.14872,0.17875 -0.24651,0.17875 -0.0978,0 -1.30305,-0.54577 -2.67837,-1.2128 -1.37531,-0.66703 -2.58726,-1.21279 -2.69327,-1.21279 -0.10585,0 -0.73453,0.29119 -1.39682,0.6471 -1.57152,0.84457 -3.33638,1.72853 -3.63805,1.82222 -0.13149,0.0406 -0.27471,0.0392 -0.31757,-0.004 z"
           id="path15629" />
      </g>
      <ellipse
         style="fill:none;fill-opacity:1;stroke:none;stroke-width:2.44397;stroke-linecap:round;stroke-linejoin:round;stroke-miterlimit:4;stroke-dasharray:none;stroke-opacity:1;paint-order:fill markers stroke;stop-color:#000000"
         id="path15655"
         cy="103.5733"
         cx="-445.51044"
         ry="76.734383"
         rx="107.604" />
      <text
         xml:space="preserve"
         style="font-style:normal;font-variant:normal;font-weight:normal;font-stretch:normal;font-size:24.6944px;line-height:1.25;font-family:'Jamison BC';-inkscape-font-specification:'Jamison BC, Normal';font-variant-ligatures:normal;font-variant-caps:normal;font-variant-numeric:normal;font-variant-east-asian:normal;text-align:center;letter-spacing:0.41275px;word-spacing:0px;text-anchor:middle;fill:#f2f2f2;fill-opacity:1;stroke-width:0.633794"
         id="text22837"><textPath
           xlink:href="#path15655"
           startOffset="50%"
           id="textPath877"
           style="font-size:24.6944px;fill:#f2f2f2;fill-opacity:1"><tspan
             id="tspan22835"
             style="font-style:normal;font-variant:normal;font-weight:normal;font-stretch:normal;font-size:24.6944px;font-family:'Jamison BC';-inkscape-font-specification:'Jamison BC, Normal';font-variant-ligatures:normal;font-variant-caps:normal;font-variant-numeric:normal;font-variant-east-asian:normal;fill:#f2f2f2;fill-opacity:1;stroke-width:0.633794"
             dy="-2.3800001"
             dx="293.19342"
             rotate="1 1 1 1 1 1 1 1 1 1 1 1 1 0">STORE CATALOG</tspan></textPath></text>
    </g>
  </g>
</svg>
