<?xml version="1.0" encoding="UTF-8" standalone="no"?>
<svg
   height="500"
   viewBox="0 -960 10000 10000"
   width="500"
   fill="#fcfcfc"
   version="1.1"
   id="svg4"
   sodipodi:docname="favicon-book.svg"
   inkscape:version="1.1.1 (3bf5ae0d25, 2021-09-20)"
   xmlns:inkscape="http://www.inkscape.org/namespaces/inkscape"
   xmlns:sodipodi="http://sodipodi.sourceforge.net/DTD/sodipodi-0.dtd"
   xmlns="http://www.w3.org/2000/svg"
   xmlns:svg="http://www.w3.org/2000/svg">
  <defs
     id="defs8" />
  <sodipodi:namedview
     id="namedview6"
     pagecolor="#ffffff"
     bordercolor="#666666"
     borderopacity="1.0"
     inkscape:pageshadow="2"
     inkscape:pageopacity="0.0"
     inkscape:pagecheckerboard="0"
     showgrid="false"
     inkscape:zoom="0.33099595"
     inkscape:cx="225.07828"
     inkscape:cy="92.146143"
     inkscape:window-width="1271"
     inkscape:window-height="969"
     inkscape:window-x="507"
     inkscape:window-y="406"
     inkscape:window-maximized="0"
     inkscape:current-layer="svg4" />
  <rect
     style="fill:#333333;stroke-width:1309.13;stroke-linecap:round;stroke-linejoin:round;paint-order:fill markers stroke;stop-color:#000000"
     id="rect847"
     width="10000"
     height="10000"
     x="-4.5474735e-13"
     y="-960"
     rx="1114.2859" />
  <path
     style="stroke-width:8.34492"
     d="m 2559.1098,2492.0166 q -230.6537,0 -394.8818,-164.2281 Q 2000,2163.5604 2000,1932.9067 q 0,-230.6537 164.228,-394.8818 164.2281,-164.2281 394.8818,-164.2281 230.6537,0 394.8818,164.2281 164.2282,164.2281 164.2282,394.8818 0,230.6537 -164.2282,394.8818 -164.2281,164.2281 -394.8818,164.2281 z"
     id="path958" />
  <path
     style="stroke-width:8.34492;fill:#ffc857;fill-opacity:1"
     d="m 2567.4548,4603.2824 q -234.0751,0 -400.7233,-164.2281 Q 2000,4274.8262 2000,4044.1725 q 0,-230.6537 166.7315,-394.8818 166.6482,-164.2281 400.7233,-164.2281 227.2322,0 388.9569,164.2281 161.8081,164.2281 161.8081,394.8818 0,230.6537 -161.8081,394.8818 -161.7247,164.2281 -388.9569,164.2281 z"
     id="path956" />
  <path
     style="stroke-width:8.34492;stroke:none;fill:#db3a34;fill-opacity:1"
     d="m 2567.4548,6706.2032 q -234.0751,0 -400.7233,-158.5535 Q 2000,6389.0961 2000,6151.2658 q 0,-237.8304 162.726,-400.5564 162.726,-162.726 400.5563,-162.726 237.8303,0 396.3839,166.7316 158.5536,166.6481 158.5536,400.7232 0,227.2323 -161.8081,388.9569 -161.7247,161.8081 -388.9569,161.8081 z"
     id="path954" />
  <path
     style="stroke-width:8.34492"
     d="M 4136.3001,2183.2544 V 1682.559 h 3863.7004 v 500.6954 z"
     id="path952" />
  <path
     style="stroke-width:8.34492;fill:#ffc857;fill-opacity:1;stroke:none"
     d="m 4136.3001,4294.5202 v -500.6954 h 3863.7004 v 500.6954 z"
     id="path950" />
  <path
     style="stroke-width:8.34492;stroke:none;fill:#db3a34;fill-opacity:1"
     d="M 4136.3001,6397.441 V 5896.7456 H 8000.0005 V 6397.441 Z"
     id="path2" />
</svg>
