<?xml version="1.0" encoding="UTF-8" standalone="no"?>
<!-- Created with Inkscape (http://www.inkscape.org/) -->

<svg
   width="53.140282mm"
   height="43.133991mm"
   viewBox="0 0 53.140282 43.133991"
   version="1.1"
   id="svg1"
   xml:space="preserve"
   inkscape:version="1.3 (0e150ed6c4, 2023-07-21)"
   sodipodi:docname="cart-icon.svg"
   xmlns:inkscape="http://www.inkscape.org/namespaces/inkscape"
   xmlns:sodipodi="http://sodipodi.sourceforge.net/DTD/sodipodi-0.dtd"
   xmlns="http://www.w3.org/2000/svg"
   xmlns:svg="http://www.w3.org/2000/svg"><sodipodi:namedview
     id="namedview1"
     pagecolor="#ffffff"
     bordercolor="#000000"
     borderopacity="0.25"
     inkscape:showpageshadow="2"
     inkscape:pageopacity="0.0"
     inkscape:pagecheckerboard="0"
     inkscape:deskcolor="#d1d1d1"
     inkscape:document-units="mm"
     inkscape:zoom="1.1180205"
     inkscape:cx="85.418827"
     inkscape:cy="14.758227"
     inkscape:window-width="2560"
     inkscape:window-height="1511"
     inkscape:window-x="-9"
     inkscape:window-y="-9"
     inkscape:window-maximized="1"
     inkscape:current-layer="layer1" /><defs
     id="defs1" /><g
     inkscape:label="Layer 1"
     inkscape:groupmode="layer"
     id="layer1"
     transform="translate(-82.311178,-144.80314)"><path
       d="m 88.749105,144.80356 c -1.18298,0 -2.146461,0.005 -2.929537,0.0165 -0.783076,0.0115 -1.386034,0.0296 -1.848983,0.0574 -0.231474,0.0139 -0.427878,0.0302 -0.594279,0.0491 -0.166401,0.0189 -0.302629,0.0402 -0.413928,0.0646 -0.111299,0.0244 -0.19738,0.0521 -0.26355,0.0827 -0.06617,0.0306 -0.112648,0.0644 -0.14366,0.1018 -0.04836,0.0583 -0.09003,0.15893 -0.124541,0.29714 -0.03451,0.13822 -0.06184,0.31389 -0.08165,0.52297 -0.01981,0.20908 -0.03193,0.45159 -0.03617,0.72244 -0.0042,0.27085 -2.94e-4,0.56995 0.01189,0.89348 0.01194,0.31713 0.01774,0.5928 0.03101,0.83251 0.01326,0.23971 0.03389,0.44378 0.0739,0.61702 0.02,0.0866 0.04503,0.16565 0.07648,0.23771 0.03145,0.072 0.06916,0.13699 0.115238,0.19585 0.04608,0.0589 0.100449,0.11161 0.164332,0.15865 0.06388,0.047 0.137344,0.0885 0.222208,0.12505 0.08487,0.0366 0.180882,0.0681 0.289905,0.0956 0.109023,0.0275 0.231061,0.051 0.367419,0.0708 0.272716,0.0396 0.603471,0.0647 1.00459,0.0816 0.401119,0.0169 0.872365,0.0253 1.427303,0.0305 0.554939,0.005 1.193357,0.007 1.927531,0.0119 1.182356,0.007 2.257227,0.0233 3.036507,0.0429 0.77928,0.0196 1.262972,0.0427 1.262972,0.0651 0,0.0448 1.431926,6.14679 3.181718,13.5599 l 3.181202,13.47824 -0.659392,1.32292 c -0.156383,0.3137 -0.292025,0.61831 -0.406177,0.91519 -0.114151,0.29687 -0.206827,0.58602 -0.278535,0.87023 -0.07171,0.28421 -0.122359,0.56353 -0.151412,0.83923 -0.02905,0.27569 -0.03655,0.54824 -0.02274,0.81958 0.01381,0.27135 0.04905,0.54121 0.105937,0.81236 0.05689,0.27114 0.135464,0.54345 0.235644,0.81855 0.10018,0.27511 0.222188,0.55291 0.365869,0.83613 0.143682,0.28321 0.3087,0.57164 0.496094,0.86713 0.137008,0.21604 0.279511,0.41309 0.431498,0.59479 0.151988,0.18171 0.31364,0.34828 0.489893,0.50385 0.176253,0.15557 0.366903,0.30007 0.576709,0.4377 0.20981,0.13763 0.43879,0.26847 0.69143,0.39636 v -5.2e-4 c 0.17258,0.0874 0.34591,0.16562 0.51935,0.23461 0.17344,0.069 0.34709,0.12905 0.5209,0.17983 0.1738,0.0508 0.34773,0.0923 0.52141,0.12506 0.17369,0.0327 0.34731,0.0565 0.52038,0.0713 0.17308,0.0149 0.34531,0.021 0.51729,0.0181 0.17197,-0.003 0.34327,-0.0147 0.51366,-0.0351 0.17038,-0.0204 0.34019,-0.0495 0.50849,-0.0873 0.16831,-0.0378 0.33553,-0.084 0.50127,-0.13901 0.16573,-0.055 0.32979,-0.11909 0.49247,-0.1912 0.16268,-0.0721 0.32353,-0.15231 0.48266,-0.24133 0.15913,-0.089 0.31671,-0.18672 0.47181,-0.29249 0.15509,-0.10577 0.30779,-0.21975 0.45837,-0.3421 0.15057,-0.12235 0.29886,-0.25294 0.44441,-0.39171 0.14556,-0.13877 0.28835,-0.28577 0.4284,-0.4408 0.14005,-0.15503 0.27729,-0.31825 0.41135,-0.48937 0.13406,-0.17113 0.26516,-0.35038 0.39274,-0.53744 l 1.03766,-1.52135 h 5.91075 c 1.25516,0 2.2558,0.004 3.05666,0.0155 0.80087,0.0114 1.40178,0.03 1.85673,0.0599 0.22748,0.015 0.41849,0.0328 0.57981,0.0537 0.16133,0.0209 0.29282,0.0451 0.40153,0.0729 0.10871,0.0278 0.19493,0.0591 0.26458,0.0946 0.0697,0.0355 0.12277,0.0752 0.16692,0.11937 0.11434,0.11434 0.21868,0.25544 0.29404,0.39068 0.0377,0.0676 0.0683,0.1337 0.0894,0.1943 0.0211,0.0606 0.0326,0.11581 0.0326,0.16123 0,0.0454 0.0274,0.1206 0.077,0.21808 0.0496,0.0975 0.12175,0.21694 0.21032,0.35036 0.0886,0.13342 0.19375,0.28082 0.31058,0.43408 0.11683,0.15327 0.24491,0.31273 0.37931,0.46974 0.15081,0.1762 0.30769,0.34118 0.46973,0.49558 0.16205,0.1544 0.32943,0.29787 0.50127,0.43046 0.17183,0.1326 0.34848,0.25458 0.52865,0.36536 0.18016,0.11078 0.36381,0.21077 0.55087,0.29972 0.18705,0.0889 0.3775,0.16698 0.56999,0.23409 0.19249,0.0671 0.38694,0.1232 0.58342,0.16847 0.19648,0.0453 0.39474,0.0794 0.59377,0.10284 0.19902,0.0234 0.39881,0.0362 0.59893,0.0377 0.20011,0.002 0.40072,-0.008 0.60048,-0.0284 0.19976,-0.0204 0.3989,-0.0518 0.59686,-0.0941 0.19796,-0.0422 0.3944,-0.0955 0.58911,-0.15968 0.19471,-0.0641 0.38773,-0.13874 0.57774,-0.2248 0.19001,-0.0861 0.37735,-0.18346 0.56121,-0.29145 0.18386,-0.10799 0.36427,-0.22664 0.54053,-0.35657 0.17627,-0.12992 0.348,-0.27084 0.51522,-0.42271 0.16722,-0.15188 0.32954,-0.31503 0.48627,-0.48886 0.14669,-0.1627 0.28291,-0.32923 0.40773,-0.50023 0.12482,-0.171 0.2385,-0.34634 0.34158,-0.52607 0.10308,-0.17972 0.19552,-0.36406 0.27699,-0.55293 0.0815,-0.18888 0.15189,-0.38241 0.21187,-0.58085 0.06,-0.19844 0.10917,-0.40187 0.1478,-0.6103 0.0386,-0.20842 0.0668,-0.42195 0.0842,-0.64078 0.0174,-0.21884 0.0244,-0.44265 0.0207,-0.67231 -0.004,-0.22967 -0.0182,-0.46499 -0.0429,-0.7059 -0.0298,-0.29125 -0.0778,-0.57275 -0.14263,-0.84388 -0.0649,-0.27113 -0.14651,-0.53211 -0.2434,-0.78186 -0.0969,-0.24976 -0.20896,-0.48809 -0.33486,-0.71521 -0.1259,-0.22711 -0.26564,-0.44274 -0.41754,-0.64595 -0.15191,-0.20321 -0.31602,-0.39402 -0.49093,-0.57206 -0.17491,-0.17804 -0.36061,-0.34345 -0.55552,-0.49506 -0.19492,-0.15161 -0.39943,-0.28949 -0.61133,-0.41341 -0.21191,-0.12392 -0.43143,-0.2337 -0.65733,-0.32866 -0.2259,-0.095 -0.45816,-0.17504 -0.69505,-0.23978 -0.23688,-0.0647 -0.4786,-0.11402 -0.72347,-0.14728 -0.24487,-0.0333 -0.49274,-0.0506 -0.74259,-0.0512 -0.24984,-5.1e-4 -0.50162,0.0156 -0.75344,0.0491 -0.25182,0.0335 -0.50369,0.0842 -0.75448,0.15297 -0.25078,0.0688 -0.50049,0.15566 -0.74724,0.26096 -0.24675,0.1053 -0.49048,0.22897 -0.73018,0.37207 -0.23971,0.1431 -0.47521,0.30567 -0.70487,0.48783 l -1.05833,0.83922 -7.43159,0.0775 -7.43211,0.078 -1.26659,-1.04697 c -0.17504,-0.14464 -0.3745,-0.29076 -0.58549,-0.43098 -0.21099,-0.14021 -0.43388,-0.27439 -0.65474,-0.39584 -0.22086,-0.12144 -0.43976,-0.22999 -0.64441,-0.31833 -0.20464,-0.0883 -0.39471,-0.15652 -0.55707,-0.1974 -0.22164,-0.0558 -0.40478,-0.10927 -0.55345,-0.1633 -0.14867,-0.054 -0.26314,-0.10849 -0.34778,-0.16691 -0.0423,-0.0292 -0.0769,-0.0595 -0.10491,-0.0909 -0.028,-0.0315 -0.0493,-0.0642 -0.0641,-0.0987 -0.0148,-0.0345 -0.0231,-0.0707 -0.0258,-0.10904 -0.003,-0.0383 5.2e-4,-0.0791 0.009,-0.12196 0.005,-0.0263 0.0134,-0.051 0.0274,-0.0744 0.014,-0.0234 0.0334,-0.0454 0.061,-0.0662 0.0552,-0.0415 0.1426,-0.0776 0.2806,-0.10955 0.138,-0.0319 0.32652,-0.0598 0.58498,-0.0837 0.25845,-0.024 0.58645,-0.0439 1.00304,-0.0615 0.83317,-0.0352 2.02066,-0.0594 3.71243,-0.0786 1.69178,-0.0192 3.88783,-0.0337 6.73964,-0.0496 l 12.32225,-0.0687 0.53898,-0.59273 c 0.0379,-0.0417 0.0984,-0.15392 0.17829,-0.32866 0.0798,-0.17475 0.17922,-0.41199 0.29507,-0.70228 0.2317,-0.58059 0.5294,-1.37472 0.86971,-2.31252 0.34031,-0.93781 0.72332,-2.01894 1.125,-3.17397 0.40168,-1.15503 0.82235,-2.38404 1.23817,-3.61632 0.41581,-1.23228 0.82651,-2.46796 1.20922,-3.6375 0.38272,-1.16954 0.73735,-2.27278 1.03973,-3.2396 0.30238,-0.96682 0.5528,-1.79744 0.72761,-2.42155 0.0874,-0.31206 0.15592,-0.57243 0.20257,-0.77257 0.0466,-0.20013 0.0713,-0.3396 0.0713,-0.41031 0,-0.11253 -0.0158,-0.22575 -0.0465,-0.33744 -0.0307,-0.1117 -0.0764,-0.222 -0.1359,-0.32918 -0.0595,-0.10718 -0.13299,-0.21108 -0.21911,-0.31006 -0.0861,-0.099 -0.18485,-0.19298 -0.29559,-0.28009 -0.0862,-0.0678 -0.16477,-0.12725 -0.2713,-0.17932 -0.10653,-0.0521 -0.24095,-0.097 -0.43925,-0.13539 -0.1983,-0.0384 -0.46063,-0.0703 -0.82217,-0.0971 -0.36155,-0.0268 -0.82225,-0.0488 -1.41852,-0.0661 -1.19255,-0.0346 -2.92615,-0.0519 -5.48649,-0.061 -2.56034,-0.009 -5.94747,-0.01 -10.44742,-0.01 -3.55776,0 -6.4774,-0.004 -8.85838,-0.015 -2.38097,-0.0108 -4.22358,-0.0281 -5.62808,-0.0532 -1.404495,-0.0252 -2.370448,-0.0582 -2.998781,-0.10128 -0.314167,-0.0216 -0.544082,-0.0456 -0.701766,-0.0724 -0.07884,-0.0134 -0.139552,-0.0276 -0.183968,-0.0424 -0.04442,-0.0147 -0.07266,-0.0303 -0.08578,-0.0465 -0.03689,-0.0455 -0.08083,-0.13307 -0.128674,-0.25322 -0.04785,-0.12014 -0.09946,-0.27264 -0.151929,-0.44648 -0.104933,-0.34768 -0.212748,-0.78197 -0.298173,-1.21853 -0.109492,-0.55955 -0.202374,-1.0474 -0.295073,-1.47278 -0.04635,-0.21269 -0.09255,-0.40962 -0.141076,-0.59221 -0.04852,-0.18259 -0.09905,-0.35062 -0.153996,-0.5054 -0.05495,-0.15477 -0.11422,-0.29603 -0.179834,-0.42529 -0.06561,-0.12927 -0.137542,-0.2464 -0.218075,-0.35244 -0.08053,-0.10604 -0.169536,-0.20117 -0.269234,-0.28628 -0.0997,-0.0851 -0.210201,-0.16038 -0.333313,-0.22686 -0.123112,-0.0665 -0.25902,-0.12401 -0.409794,-0.17415 -0.150774,-0.0502 -0.31651,-0.0931 -0.499194,-0.12919 -0.182684,-0.0361 -0.382155,-0.0656 -0.600997,-0.0899 -0.218842,-0.0243 -0.456988,-0.0435 -0.716235,-0.0584 -0.518496,-0.0298 -1.122188,-0.0429 -1.827796,-0.0486 -0.705608,-0.006 -1.51294,-0.004 -2.439644,-0.004 z"
       style="fill:#f2f2f2;fill-opacity:1"
       id="path2" /></g></svg>
