<?xml version="1.0" encoding="UTF-8" standalone="no"?>
<!-- Created with Inkscape (http://www.inkscape.org/) -->

<svg
   width="1481.4199"
   height="322.03528"
   viewBox="0 0 391.959 85.205167"
   version="1.1"
   id="svg5"
   sodipodi:docname="catalog-h1.svg"
   inkscape:version="1.1.1 (3bf5ae0d25, 2021-09-20)"
   inkscape:export-filename="C:\Users\garfu\OneDrive - BYU-Idaho\Documents\GitHub\wdd131\unit4\siteplan\images\small_banner_logo_no_background.png"
   inkscape:export-xdpi="96"
   inkscape:export-ydpi="96"
   xmlns:inkscape="http://www.inkscape.org/namespaces/inkscape"
   xmlns:sodipodi="http://sodipodi.sourceforge.net/DTD/sodipodi-0.dtd"
   xmlns="http://www.w3.org/2000/svg"
   xmlns:svg="http://www.w3.org/2000/svg">
  <sodipodi:namedview
     id="namedview7"
     pagecolor="#ffffff"
     bordercolor="#666666"
     borderopacity="1.0"
     inkscape:pageshadow="2"
     inkscape:pageopacity="0.0"
     inkscape:pagecheckerboard="0"
     inkscape:document-units="mm"
     showgrid="false"
     units="px"
     width="500px"
     inkscape:zoom="1.4142137"
     inkscape:cx="289.5602"
     inkscape:cy="114.90484"
     inkscape:window-width="2560"
     inkscape:window-height="1369"
     inkscape:window-x="-8"
     inkscape:window-y="-8"
     inkscape:window-maximized="1"
     inkscape:current-layer="g861" />
  <defs
     id="defs2">
    <inkscape:path-effect
       effect="powermask"
       id="path-effect31233"
       is_visible="true"
       lpeversion="1"
       uri="#mask-powermask-path-effect31233"
       invert="false"
       hide_mask="false"
       background="true"
       background_color="#ffffffff" />
    <mask
       maskUnits="userSpaceOnUse"
       id="mask-powermask-path-effect31233">
      <path
         style="fill:#222222;stroke-width:0.264583"
         d="m -168.14781,212.73124 v -31.22083 h 29.36875 29.36875 v 31.22083 31.22084 h -29.36875 -29.36875 z m 27.41347,22.71156 2.55567,-1.36553 2.74569,1.36553 c 1.51013,0.75104 2.8038,1.36553 2.87481,1.36553 0.24449,0 0.12918,-1.46069 -0.29983,-3.79816 l -0.43002,-2.34295 2.18201,-2.1934 c 1.20011,-1.20638 2.11149,-2.30752 2.02529,-2.44699 -0.0862,-0.13947 -1.26179,-0.3983 -2.61243,-0.57517 -1.35064,-0.17687 -2.66756,-0.38202 -2.9265,-0.45588 -0.27112,-0.0773 -1.02959,-1.24783 -1.78835,-2.75983 -0.72465,-1.44405 -1.47057,-2.62554 -1.65759,-2.62554 -0.18702,0 -0.87054,1.08702 -1.51894,2.4156 -0.6484,1.32858 -1.41703,2.56507 -1.70807,2.74775 -0.29104,0.18269 -1.69269,0.48056 -3.11477,0.66194 -1.42208,0.18138 -2.65591,0.44355 -2.74184,0.5826 -0.0859,0.13904 0.80969,1.20714 1.99029,2.37355 1.18059,1.16641 2.14636,2.3169 2.14616,2.55663 -1.9e-4,0.23974 -0.17863,1.44792 -0.39651,2.68485 -0.46463,2.63769 -0.48812,3.175 -0.1388,3.175 0.14193,0 1.40811,-0.61449 2.81373,-1.36553 z m -13.65514,-32.36885 c 1.30388,-0.65484 2.55278,-1.19062 2.77535,-1.19062 0.22258,0 1.3956,0.53578 2.60673,1.19062 2.66036,1.43843 3.21566,1.51523 2.99546,0.41427 -0.0854,-0.427 -0.30312,-1.79896 -0.48383,-3.0488 l -0.32856,-2.27244 2.03826,-2.05028 c 1.12104,-1.12766 2.03826,-2.18573 2.03826,-2.35126 0,-0.16919 -0.83987,-0.43445 -1.91823,-0.60584 -4.45191,-0.70756 -3.86809,-0.34974 -5.39643,-3.30742 -0.74884,-1.44918 -1.49497,-2.67936 -1.65807,-2.73372 -0.1631,-0.0544 -0.81298,1.01385 -1.44419,2.37383 -0.6312,1.35997 -1.32196,2.61734 -1.53502,2.79417 -0.28953,0.24028 -4.93966,1.1302 -5.90569,1.1302 -0.51504,0 0.16072,0.94671 1.98412,2.77962 l 2.11815,2.12921 -0.53065,2.88829 c -0.29186,1.58855 -0.53066,2.92485 -0.53066,2.96954 0,0.3111 1.13929,-0.087 3.175,-1.10937 z"
         id="path31231" />
    </mask>
  </defs>
  <g
     inkscape:label="Layer 1"
     inkscape:groupmode="layer"
     id="layer1"
     transform="translate(884.37836,12.174573)">
    <g
       id="g56684">
      <g
         id="g15498"
         transform="matrix(0.69202658,0,0,0.69202658,-601.77708,-6.8733438)">
        <g
           id="g28628"
           transform="translate(0.87914679)">
          <g
             id="g15486"
             transform="translate(-8.4666671)">
            <g
               id="g861"
               transform="matrix(7.4660839,0,0,7.4660839,760.30576,-348.53243)">
              <g
                 id="g27674"
                 style="font-size:17.5774px;line-height:1.25;font-family:'Varsity Two BC';-inkscape-font-specification:'Varsity Two BC, Normal';text-align:center;word-spacing:0px;text-anchor:middle;fill:#e9b872;fill-opacity:1;stroke:#e9b872;stroke-width:0.682827;stroke-miterlimit:4;stroke-dasharray:none;stroke-opacity:1"
                 transform="matrix(1.1893316,0,0,1.1893316,22.262295,-10.194211)">
                <path
                   d="m -147.04328,60.308068 h 3.72641 l 1.91593,-1.915937 v -2.126865 h -2.28506 v 1.75774 h -2.98816 v -8.261378 h 2.98816 v 1.406192 h 2.28506 v -3.691254 h -2.28506 v 0.509744 l -0.50974,-0.509744 h -2.84754 l -1.91594,1.915936 v 8.999629 z m -2.09171,-1.845627 v -9.140248 l 2.0214,-2.021401 h 2.98816 l 0.26366,0.263661 v -0.263661 h 2.63661 v 4.042802 h -2.63661 v -1.406192 h -2.63661 v 7.90983 h 2.63661 v -1.75774 h 2.63661 v 2.372949 l -2.0214,2.021401 h -3.86703 z m 0.17577,-0.07031 v -8.999629 l 1.91594,-1.915936 h 2.84754 l 0.50974,0.509744 v -0.509744 h 2.28506 v 3.691254 h -2.28506 v -1.406192 h -2.98816 v 8.261378 h 2.98816 v -1.75774 h 2.28506 v 2.126865 l -1.91593,1.915937 h -3.72641 z"
                   id="path18741"
                   sodipodi:nodetypes="ccccccccccccccccccccccccccccccccccccccccccccccccccccccccc"
                   style="fill:#e9b872;fill-opacity:1;stroke:#e9b872;stroke-width:0.682827;stroke-miterlimit:4;stroke-dasharray:none;stroke-opacity:1" />
                <path
                   d="m -139.29166,60.308068 h 3.3397 v -2.285062 h -0.29881 l 0.29881,-1.230418 h 2.10929 l 0.29882,1.230418 h -0.29882 v 2.285062 h 3.33971 v -2.285062 h -0.73825 l -2.0214,-8.243801 h 0.29881 v -2.285062 h -3.86703 v 2.285062 h 0.29882 l -2.0214,8.243801 h -0.73825 z m -0.17578,0.175774 v -2.63661 h 0.77341 l 1.95109,-7.892253 h -0.26366 v -2.63661 h 4.21858 v 2.63661 h -0.26367 l 1.9511,7.892253 h 0.7734 v 2.63661 h -3.69125 v -2.63661 h 0.26366 l -0.22851,-0.87887 h -1.82805 l -0.2285,0.87887 h 0.26366 v 2.63661 z m 0.17578,-0.175774 v -2.285062 h 0.73825 l 2.0214,-8.243801 h -0.29882 v -2.285062 h 3.86703 v 2.285062 h -0.29881 l 2.0214,8.243801 h 0.73825 v 2.285062 h -3.33971 v -2.285062 h 0.29886 l -0.29882,-1.230418 h -2.10929 l -0.29881,1.230418 h 0.29881 v 2.285062 z m 3.90218,-5.800542 h 0.98433 l -0.49216,-2.056556 z m 0,0 0.49217,-2.056556 0.49216,2.056556 z m 0.21093,-0.175774 h 0.56248 l -0.28124,-1.142531 z"
                   id="path18743"
                   sodipodi:nodetypes="ccccccccccccccccccccccccccccccccccccccccccccccccccccccccccccccccccccccccccc"
                   style="fill:#e9b872;fill-opacity:1;stroke:#e9b872;stroke-width:0.682827;stroke-miterlimit:4;stroke-dasharray:none;stroke-opacity:1" />
                <path
                   d="m -128.74527,60.308068 h 3.30455 v -2.285062 h -0.49217 v -8.261378 h 0.7031 v 0.738251 h 2.28506 v -3.023313 h -8.26138 v 3.023313 h 2.28506 v -0.738251 h 0.7031 v 8.261378 h -0.52732 z m -2.63661,-9.632415 v -3.374861 h 8.61292 v 3.374861 h -2.63661 v -0.738251 h -0.35154 v 7.90983 h 0.49216 v 2.63661 h -3.6561 v -2.63661 h 0.52733 v -7.90983 h -0.35155 v 0.738251 z m 0.17577,-0.175774 v -3.023313 h 8.26138 v 3.023313 h -2.28506 v -0.738251 h -0.7031 v 8.261378 h 0.49217 v 2.285062 h -3.30455 v -2.285062 h 0.52732 v -8.261378 h -0.7031 v 0.738251 z"
                   id="path18745"
                   sodipodi:nodetypes="ccccccccccccccccccccccccccccccccccccccccccccccccccc"
                   style="fill:#e9b872;fill-opacity:1;stroke:#e9b872;stroke-width:0.682827;stroke-miterlimit:4;stroke-dasharray:none;stroke-opacity:1" />
                <path
                   d="m -123.64789,60.308068 h 3.33971 v -2.285062 h -0.29882 l 0.29882,-1.230418 h 2.10929 l 0.29881,1.230418 h -0.29881 v 2.285062 h 3.3397 v -2.285062 h -0.73825 l -2.0214,-8.243801 h 0.29882 v -2.285062 h -3.86703 v 2.285062 h 0.29881 l -2.0214,8.243801 h -0.73825 z m -0.17577,0.175774 v -2.63661 h 0.7734 l 1.95109,-7.892253 h -0.26366 v -2.63661 h 4.21858 v 2.63661 h -0.26366 l 1.95109,7.892253 h 0.77341 v 2.63661 h -3.69126 v -2.63661 h 0.26366 l -0.2285,-0.87887 h -1.82805 l -0.22851,0.87887 h 0.26366 v 2.63661 z m 0.17577,-0.175774 v -2.285062 h 0.73825 l 2.0214,-8.243801 h -0.29881 v -2.285062 h 3.86703 v 2.285062 h -0.29882 l 2.0214,8.243801 h 0.73825 v 2.285062 h -3.3397 v -2.285062 h 0.29881 l -0.29881,-1.230418 h -2.10929 l -0.29882,1.230418 h 0.29882 v 2.285062 z m 3.90218,-5.800542 h 0.98434 l -0.49217,-2.056556 z m 0,0 0.49217,-2.056556 0.49217,2.056556 z m 0.21093,-0.175774 h 0.56248 l -0.28124,-1.142531 z"
                   id="path18747"
                   sodipodi:nodetypes="ccccccccccccccccccccccccccccccccccccccccccccccccccccccccccccccccccccccccccc"
                   style="fill:#e9b872;fill-opacity:1;stroke:#e9b872;stroke-width:0.682827;stroke-miterlimit:4;stroke-dasharray:none;stroke-opacity:1" />
                <path
                   d="m -112.74992,60.308068 h 7.20674 v -3.023313 h -2.28507 v 0.738251 h -2.10928 v -8.261378 h 0.52732 v -2.285062 h -3.30455 v 2.285062 h 0.49216 v 8.261378 h -0.52732 z m -0.17577,0.175774 v -2.63661 h 0.52732 v -7.90983 h -0.49217 v -2.63661 h 3.6561 v 2.63661 h -0.52732 v 7.90983 h 1.75774 v -0.738251 h 2.63661 v 3.374861 z m 0.17577,-0.175774 v -2.285062 h 0.52732 v -8.261378 h -0.49216 v -2.285062 h 3.30455 v 2.285062 h -0.52732 v 8.261378 h 2.10928 v -0.738251 h 2.28507 v 3.023313 z"
                   id="path18749"
                   sodipodi:nodetypes="ccccccccccccccccccccccccccccccccccccccccccccc"
                   style="fill:#e9b872;fill-opacity:1;stroke:#e9b872;stroke-width:0.682827;stroke-miterlimit:4;stroke-dasharray:none;stroke-opacity:1" />
                <path
                   d="m -101.51798,60.308068 h 3.726409 l 1.915936,-1.915937 v -8.999629 l -1.915936,-1.915936 h -3.726409 l -1.91594,1.915936 v 8.999629 z m -2.09171,-1.845627 v -9.140248 l 2.0214,-2.021401 h 3.867028 l 2.021401,2.021401 v 9.140248 l -2.021401,2.021401 h -3.867028 z m 0.17577,-0.07031 v -8.999629 l 1.91594,-1.915936 h 3.726409 l 1.915936,1.915936 v 8.999629 l -1.915936,1.915937 h -3.726409 z m 2.28507,-0.369125 h 2.988153 v -8.261378 h -2.988153 z m 0,0 v -8.261378 h 2.988153 v 8.261378 z m 0.17577,-0.175774 h 2.636609 v -7.90983 h -2.636609 z"
                   id="path18751"
                   sodipodi:nodetypes="cccccccccccccccccccccccccccccccccccccccccc"
                   style="fill:#e9b872;fill-opacity:1;stroke:#e9b872;stroke-width:0.682827;stroke-miterlimit:4;stroke-dasharray:none;stroke-opacity:1" />
                <path
                   d="m -91.850424,60.308068 h 3.726409 l 1.915937,-1.915937 v -4.763475 h -4.042802 v 2.285062 h 1.75774 v 2.109288 h -2.988158 v -8.261378 h 2.988158 v 1.406192 h 2.285062 v -3.691254 h -2.285062 v 0.509744 l -0.509745,-0.509744 h -2.847539 l -1.915936,1.915936 v 8.999629 z m -2.09171,-1.845627 v -9.140248 l 2.021401,-2.021401 h 2.988158 l 0.263661,0.263661 v -0.263661 h 2.63661 v 4.042802 h -2.63661 v -1.406192 h -2.63661 v 7.90983 h 2.63661 v -1.75774 h -1.75774 v -2.63661 h 4.39435 v 5.009559 l -2.021401,2.021401 h -3.867028 z m 0.175774,-0.07031 v -8.999629 l 1.915936,-1.915936 h 2.847539 l 0.509745,0.509744 v -0.509744 h 2.285062 v 3.691254 h -2.285062 v -1.406192 h -2.988158 v 8.261378 h 2.988158 v -2.109288 h -1.75774 v -2.285062 h 4.042802 v 4.763475 l -1.915937,1.915937 h -3.726409 z"
                   id="path18753"
                   sodipodi:nodetypes="ccccccccccccccccccccccccccccccccccccccccccccccccccccccccccccccc"
                   style="fill:#e9b872;fill-opacity:1;stroke:#e9b872;stroke-width:0.682827;stroke-miterlimit:4;stroke-dasharray:none;stroke-opacity:1" />
              </g>
              <g
                 id="g1353"
                 transform="translate(-5.5203452e-6,0.10452661)"
                 style="fill:#151515;fill-opacity:1">
                <path
                   d="m -152.62092,61.427553 h 4.43193 l 2.27869,-2.278684 v -2.529548 h -2.71769 v 2.090536 h -3.55392 v -9.825518 h 3.55392 v 1.672428 h 2.71769 v -4.390125 h -2.71769 v 0.606256 l -0.60627,-0.606256 h -3.38666 l -2.27868,2.278685 v 10.703542 z m -2.48774,-2.195062 V 48.361705 l 2.40411,-2.404116 h 3.55392 l 0.31358,0.31358 v -0.31358 h 3.1358 v 4.808232 h -3.1358 v -1.672429 h -3.13581 v 9.407411 h 3.13581 v -2.090536 h 3.1358 v 2.822224 l -2.40412,2.404116 h -4.59918 z m 0.52264,-0.209054 V 48.570759 l 2.09053,-2.090536 h 3.13581 l 1.04527,1.045268 v -1.045268 h 2.09053 v 3.762964 h -2.09053 v -1.672428 h -4.18108 v 10.452678 h 4.18108 v -2.090536 h 2.09053 v 2.090536 l -2.09053,2.090536 h -4.18108 z"
                   id="path47887"
                   style="font-size:17.5774px;line-height:1.25;font-family:'Varsity Two BC';-inkscape-font-specification:'Varsity Two BC, Normal';text-align:center;word-spacing:0px;text-anchor:middle;fill:#151515;stroke-width:0.522634;fill-opacity:1" />
                <path
                   d="m -143.40168,61.427553 h 3.97202 v -2.717696 h -0.35539 l 0.35539,-1.463375 h 2.50865 l 0.35538,1.463375 h -0.35538 v 2.717696 h 3.97201 v -2.717696 h -0.87802 l -2.40412,-9.804613 h 0.3554 v -2.717697 h -4.59918 v 2.717697 h 0.35539 l -2.40411,9.804613 h -0.87804 z m -0.20905,0.209054 v -3.135804 h 0.91984 l 2.3205,-9.386506 h -0.31358 v -3.135803 h 5.01728 v 3.135803 h -0.31358 l 2.32049,9.386506 h 0.91984 v 3.135804 h -4.39013 v -3.135804 h 0.31359 l -0.27177,-1.045268 h -2.17416 l -0.27178,1.045268 h 0.31358 v 3.135804 z m 0.52264,-0.522634 v -2.090536 h 0.8153 l 2.55046,-10.431774 h -0.43901 v -2.090535 h 3.97202 v 2.090535 h -0.43902 l 2.55046,10.431774 h 0.8153 v 2.090536 h -3.34485 v -2.090536 h 0.43902 l -0.50173,-2.090536 h -3.01038 l -0.50173,2.090536 h 0.43902 v 2.090536 z m 3.93021,-6.271607 h 1.9651 l -0.98256,-4.05564 z m 0.3972,-0.313581 0.58534,-2.445927 0.58535,2.445927 z m 0.25087,-0.209053 h 0.66896 l -0.33449,-1.358848 z"
                   id="path47889"
                   style="font-size:17.5774px;line-height:1.25;font-family:'Varsity Two BC';-inkscape-font-specification:'Varsity Two BC, Normal';text-align:center;word-spacing:0px;text-anchor:middle;fill:#151515;stroke-width:0.522634;fill-opacity:1" />
                <path
                   d="m -130.85852,61.427553 h 3.93021 v -2.717696 h -0.58535 v -9.825518 h 0.83621 v 0.878025 h 2.7177 v -3.595722 h -9.82552 v 3.595722 h 2.7177 v -0.878025 h 0.83622 v 9.825518 h -0.62717 z m -3.13581,-11.456135 v -4.013829 h 10.24363 v 4.013829 h -3.1358 v -0.878026 h -0.41811 v 9.407411 h 0.58535 v 3.135804 h -4.34831 v -3.135804 h 0.62716 v -9.407411 h -0.41811 v 0.878026 z m 0.52264,-0.522634 v -2.968561 h 9.19837 v 2.968561 h -2.09054 v -0.878025 h -1.46338 v 10.452678 h 0.58534 v 2.090536 h -3.30303 v -2.090536 h 0.62716 V 48.570759 h -1.46338 v 0.878025 z"
                   id="path47891"
                   style="font-size:17.5774px;line-height:1.25;font-family:'Varsity Two BC';-inkscape-font-specification:'Varsity Two BC, Normal';text-align:center;word-spacing:0px;text-anchor:middle;fill:#151515;stroke-width:0.522634;fill-opacity:1" />
                <path
                   d="m -124.79604,61.427553 h 3.97201 v -2.717696 h -0.35538 l 0.35538,-1.463375 h 2.50865 l 0.3554,1.463375 h -0.3554 v 2.717696 h 3.97202 v -2.717696 h -0.87802 l -2.40412,-9.804613 h 0.35539 v -2.717697 h -4.59918 v 2.717697 h 0.35539 l -2.40411,9.804613 h -0.87803 z m -0.20906,0.209054 v -3.135804 h 0.91984 l 2.3205,-9.386506 h -0.31358 v -3.135803 h 5.01729 v 3.135803 h -0.31358 l 2.32049,9.386506 h 0.91983 v 3.135804 h -4.39012 v -3.135804 h 0.31358 l -0.27177,-1.045268 h -2.17416 l -0.27176,1.045268 h 0.31358 v 3.135804 z m 0.52264,-0.522634 v -2.090536 h 0.81531 l 2.55045,-10.431774 h -0.439 v -2.090535 h 3.97201 v 2.090535 h -0.43901 l 2.55045,10.431774 h 0.81531 v 2.090536 h -3.34486 v -2.090536 h 0.43902 l -0.50173,-2.090536 h -3.01037 l -0.50173,2.090536 h 0.43901 v 2.090536 z m 3.93021,-6.271607 h 1.96511 l -0.98256,-4.05564 z m 0.3972,-0.313581 0.58535,-2.445927 0.58536,2.445927 z m 0.25087,-0.209053 h 0.66897 l -0.33449,-1.358848 z"
                   id="path47893"
                   style="font-size:17.5774px;line-height:1.25;font-family:'Varsity Two BC';-inkscape-font-specification:'Varsity Two BC, Normal';text-align:center;word-spacing:0px;text-anchor:middle;fill:#151515;stroke-width:0.522634;fill-opacity:1" />
                <path
                   d="m -111.83474,61.427553 h 8.5712 v -3.595721 h -2.7177 v 0.878025 h -2.50864 v -9.825518 h 0.62715 v -2.717697 h -3.9302 v 2.717697 h 0.58535 v 9.825518 h -0.62716 z m -0.20906,0.209054 v -3.135804 h 0.62717 v -9.407411 h -0.58535 v -3.135803 h 4.34832 v 3.135803 h -0.62716 v 9.407411 h 2.09053 v -0.878025 h 3.13581 v 4.013829 z m 0.52264,-0.522634 v -2.090536 h 0.62716 V 48.570759 h -0.58535 v -2.090536 h 3.30305 v 2.090536 h -0.62716 v 10.452678 h 3.1358 v -0.878025 h 2.09054 v 2.968561 z"
                   id="path47895"
                   style="font-size:17.5774px;line-height:1.25;font-family:'Varsity Two BC';-inkscape-font-specification:'Varsity Two BC, Normal';text-align:center;word-spacing:0px;text-anchor:middle;fill:#151515;stroke-width:0.522634;fill-opacity:1" />
                <path
                   d="m -98.476235,61.427553 h 4.431933 l 2.278684,-2.278684 V 48.445327 l -2.278684,-2.278685 h -4.431933 l -2.278685,2.278685 v 10.703542 z m -2.487735,-2.195062 V 48.361705 l 2.404113,-2.404116 h 4.599177 l 2.404116,2.404116 v 10.870786 l -2.404116,2.404116 h -4.599177 z m 0.52263,-0.209054 V 48.570759 l 2.090532,-2.090536 h 4.181074 l 2.090536,2.090536 v 10.452678 l -2.090536,2.090536 h -4.181074 z m 2.090532,0 h 4.181074 V 48.570759 h -4.181074 z m 0.313579,-0.31358 v -9.825518 h 3.553915 v 9.825518 z m 0.209061,-0.209054 h 3.1358 v -9.407411 h -3.1358 z"
                   id="path47897"
                   style="font-size:17.5774px;line-height:1.25;font-family:'Varsity Two BC';-inkscape-font-specification:'Varsity Two BC, Normal';text-align:center;word-spacing:0px;text-anchor:middle;fill:#151515;stroke-width:0.522634;fill-opacity:1" />
                <path
                   d="m -86.978307,61.427553 h 4.431936 l 2.278684,-2.278684 v -5.665352 h -4.808232 v 2.717697 h 2.090536 v 2.508643 h -3.553911 v -9.825518 h 3.553911 v 1.672428 h 2.717696 v -4.390125 h -2.717696 v 0.606256 l -0.606256,-0.606256 h -3.386668 l -2.278685,2.278685 v 10.703542 z m -2.487738,-2.195062 V 48.361705 l 2.404117,-2.404116 h 3.553911 l 0.31358,0.31358 v -0.31358 h 3.135804 v 4.808232 h -3.135804 v -1.672429 h -3.135803 v 9.407411 h 3.135803 v -2.090536 h -2.090536 v -3.135803 h 5.22634 v 5.958027 l -2.404116,2.404116 h -4.599179 z m 0.522634,-0.209054 V 48.570759 l 2.090537,-2.090536 h 3.135803 l 1.045268,1.045268 v -1.045268 h 2.090536 v 3.762964 h -2.090536 v -1.672428 h -4.181071 v 10.452678 h 4.181071 v -3.135803 h -2.090536 v -2.090536 h 4.181072 v 5.226339 l -2.090536,2.090536 h -4.181071 z"
                   id="path47899"
                   style="font-size:17.5774px;line-height:1.25;font-family:'Varsity Two BC';-inkscape-font-specification:'Varsity Two BC, Normal';text-align:center;word-spacing:0px;text-anchor:middle;fill:#151515;stroke-width:0.522634;fill-opacity:1" />
              </g>
            </g>
          </g>
        </g>
      </g>
      <ellipse
         style="fill:none;fill-opacity:1;stroke:none;stroke-width:2.44397;stroke-linecap:round;stroke-linejoin:round;stroke-miterlimit:4;stroke-dasharray:none;stroke-opacity:1;paint-order:fill markers stroke;stop-color:#000000"
         id="path15655"
         cy="103.5733"
         cx="-445.51044"
         ry="76.734383"
         rx="107.604" />
    </g>
  </g>
</svg>
