<?xml version="1.0" encoding="UTF-8" standalone="no"?>
<!-- Created with Inkscape (http://www.inkscape.org/) -->

<svg
   width="166.19655"
   height="35.887157"
   viewBox="0 0 43.972835 9.495144"
   version="1.1"
   id="svg5"
   sodipodi:docname="catalog-h1.svg"
   inkscape:version="1.1.1 (3bf5ae0d25, 2021-09-20)"
   inkscape:export-filename="C:\Users\garfu\OneDrive - BYU-Idaho\Documents\GitHub\wdd131\unit4\siteplan\images\small_banner_logo_no_background.png"
   inkscape:export-xdpi="96"
   inkscape:export-ydpi="96"
   xmlns:inkscape="http://www.inkscape.org/namespaces/inkscape"
   xmlns:sodipodi="http://sodipodi.sourceforge.net/DTD/sodipodi-0.dtd"
   xmlns="http://www.w3.org/2000/svg"
   xmlns:svg="http://www.w3.org/2000/svg">
  <sodipodi:namedview
     id="namedview7"
     pagecolor="#ffffff"
     bordercolor="#666666"
     borderopacity="1.0"
     inkscape:pageshadow="2"
     inkscape:pageopacity="0.0"
     inkscape:pagecheckerboard="0"
     inkscape:document-units="mm"
     showgrid="false"
     units="px"
     width="500px"
     inkscape:zoom="5.6568543"
     inkscape:cx="84.764425"
     inkscape:cy="45.873552"
     inkscape:window-width="2560"
     inkscape:window-height="1369"
     inkscape:window-x="-8"
     inkscape:window-y="-8"
     inkscape:window-maximized="1"
     inkscape:current-layer="g15486" />
  <defs
     id="defs2">
    <inkscape:path-effect
       effect="powermask"
       id="path-effect31233"
       is_visible="true"
       lpeversion="1"
       uri="#mask-powermask-path-effect31233"
       invert="false"
       hide_mask="false"
       background="true"
       background_color="#ffffffff" />
    <mask
       maskUnits="userSpaceOnUse"
       id="mask-powermask-path-effect31233">
      <path
         style="fill:#222222;stroke-width:0.264583"
         d="m -168.14781,212.73124 v -31.22083 h 29.36875 29.36875 v 31.22083 31.22084 h -29.36875 -29.36875 z m 27.41347,22.71156 2.55567,-1.36553 2.74569,1.36553 c 1.51013,0.75104 2.8038,1.36553 2.87481,1.36553 0.24449,0 0.12918,-1.46069 -0.29983,-3.79816 l -0.43002,-2.34295 2.18201,-2.1934 c 1.20011,-1.20638 2.11149,-2.30752 2.02529,-2.44699 -0.0862,-0.13947 -1.26179,-0.3983 -2.61243,-0.57517 -1.35064,-0.17687 -2.66756,-0.38202 -2.9265,-0.45588 -0.27112,-0.0773 -1.02959,-1.24783 -1.78835,-2.75983 -0.72465,-1.44405 -1.47057,-2.62554 -1.65759,-2.62554 -0.18702,0 -0.87054,1.08702 -1.51894,2.4156 -0.6484,1.32858 -1.41703,2.56507 -1.70807,2.74775 -0.29104,0.18269 -1.69269,0.48056 -3.11477,0.66194 -1.42208,0.18138 -2.65591,0.44355 -2.74184,0.5826 -0.0859,0.13904 0.80969,1.20714 1.99029,2.37355 1.18059,1.16641 2.14636,2.3169 2.14616,2.55663 -1.9e-4,0.23974 -0.17863,1.44792 -0.39651,2.68485 -0.46463,2.63769 -0.48812,3.175 -0.1388,3.175 0.14193,0 1.40811,-0.61449 2.81373,-1.36553 z m -13.65514,-32.36885 c 1.30388,-0.65484 2.55278,-1.19062 2.77535,-1.19062 0.22258,0 1.3956,0.53578 2.60673,1.19062 2.66036,1.43843 3.21566,1.51523 2.99546,0.41427 -0.0854,-0.427 -0.30312,-1.79896 -0.48383,-3.0488 l -0.32856,-2.27244 2.03826,-2.05028 c 1.12104,-1.12766 2.03826,-2.18573 2.03826,-2.35126 0,-0.16919 -0.83987,-0.43445 -1.91823,-0.60584 -4.45191,-0.70756 -3.86809,-0.34974 -5.39643,-3.30742 -0.74884,-1.44918 -1.49497,-2.67936 -1.65807,-2.73372 -0.1631,-0.0544 -0.81298,1.01385 -1.44419,2.37383 -0.6312,1.35997 -1.32196,2.61734 -1.53502,2.79417 -0.28953,0.24028 -4.93966,1.1302 -5.90569,1.1302 -0.51504,0 0.16072,0.94671 1.98412,2.77962 l 2.11815,2.12921 -0.53065,2.88829 c -0.29186,1.58855 -0.53066,2.92485 -0.53066,2.96954 0,0.3111 1.13929,-0.087 3.175,-1.10937 z"
         id="path31231" />
    </mask>
  </defs>
  <g
     inkscape:label="Layer 1"
     inkscape:groupmode="layer"
     id="layer1"
     transform="translate(710.38527,-25.639989)">
    <g
       id="g56684">
      <g
         id="g15498"
         transform="matrix(0.69202658,0,0,0.69202658,-601.77708,-6.8733438)">
        <g
           id="g28628"
           transform="translate(0.87914679)">
          <g
             id="g15486"
             transform="translate(-8.4666671)">
            <g
               id="g47950">
              <g
                 id="g27674"
                 style="font-size:17.5774px;line-height:1.25;font-family:'Varsity Two BC';-inkscape-font-specification:'Varsity Two BC, Normal';text-align:center;word-spacing:0px;text-anchor:middle;fill:#f2f2f2;fill-opacity:1;stroke:#f2f2f2;stroke-width:0.439435;stroke-opacity:1">
                <path
                   d="m -147.04328,60.308068 h 3.72641 l 1.91593,-1.915937 v -2.126865 h -2.28506 v 1.75774 h -2.98816 v -8.261378 h 2.98816 v 1.406192 h 2.28506 v -3.691254 h -2.28506 v 0.509744 l -0.50974,-0.509744 h -2.84754 l -1.91594,1.915936 v 8.999629 z m -2.09171,-1.845627 v -9.140248 l 2.0214,-2.021401 h 2.98816 l 0.26366,0.263661 v -0.263661 h 2.63661 v 4.042802 h -2.63661 v -1.406192 h -2.63661 v 7.90983 h 2.63661 v -1.75774 h 2.63661 v 2.372949 l -2.0214,2.021401 h -3.86703 z m 0.17577,-0.07031 v -8.999629 l 1.91594,-1.915936 h 2.84754 l 0.50974,0.509744 v -0.509744 h 2.28506 v 3.691254 h -2.28506 v -1.406192 h -2.98816 v 8.261378 h 2.98816 v -1.75774 h 2.28506 v 2.126865 l -1.91593,1.915937 h -3.72641 z"
                   id="path18741"
                   sodipodi:nodetypes="ccccccccccccccccccccccccccccccccccccccccccccccccccccccccc"
                   style="fill:#f2f2f2;fill-opacity:1;stroke:#f2f2f2;stroke-opacity:1" />
                <path
                   d="m -139.29166,60.308068 h 3.3397 v -2.285062 h -0.29881 l 0.29881,-1.230418 h 2.10929 l 0.29882,1.230418 h -0.29882 v 2.285062 h 3.33971 v -2.285062 h -0.73825 l -2.0214,-8.243801 h 0.29881 v -2.285062 h -3.86703 v 2.285062 h 0.29882 l -2.0214,8.243801 h -0.73825 z m -0.17578,0.175774 v -2.63661 h 0.77341 l 1.95109,-7.892253 h -0.26366 v -2.63661 h 4.21858 v 2.63661 h -0.26367 l 1.9511,7.892253 h 0.7734 v 2.63661 h -3.69125 v -2.63661 h 0.26366 l -0.22851,-0.87887 h -1.82805 l -0.2285,0.87887 h 0.26366 v 2.63661 z m 0.17578,-0.175774 v -2.285062 h 0.73825 l 2.0214,-8.243801 h -0.29882 v -2.285062 h 3.86703 v 2.285062 h -0.29881 l 2.0214,8.243801 h 0.73825 v 2.285062 h -3.33971 v -2.285062 h 0.29886 l -0.29882,-1.230418 h -2.10929 l -0.29881,1.230418 h 0.29881 v 2.285062 z m 3.90218,-5.800542 h 0.98433 l -0.49216,-2.056556 z m 0,0 0.49217,-2.056556 0.49216,2.056556 z m 0.21093,-0.175774 h 0.56248 l -0.28124,-1.142531 z"
                   id="path18743"
                   sodipodi:nodetypes="ccccccccccccccccccccccccccccccccccccccccccccccccccccccccccccccccccccccccccc"
                   style="fill:#f2f2f2;fill-opacity:1;stroke:#f2f2f2;stroke-opacity:1" />
                <path
                   d="m -128.74527,60.308068 h 3.30455 v -2.285062 h -0.49217 v -8.261378 h 0.7031 v 0.738251 h 2.28506 v -3.023313 h -8.26138 v 3.023313 h 2.28506 v -0.738251 h 0.7031 v 8.261378 h -0.52732 z m -2.63661,-9.632415 v -3.374861 h 8.61292 v 3.374861 h -2.63661 v -0.738251 h -0.35154 v 7.90983 h 0.49216 v 2.63661 h -3.6561 v -2.63661 h 0.52733 v -7.90983 h -0.35155 v 0.738251 z m 0.17577,-0.175774 v -3.023313 h 8.26138 v 3.023313 h -2.28506 v -0.738251 h -0.7031 v 8.261378 h 0.49217 v 2.285062 h -3.30455 v -2.285062 h 0.52732 v -8.261378 h -0.7031 v 0.738251 z"
                   id="path18745"
                   sodipodi:nodetypes="ccccccccccccccccccccccccccccccccccccccccccccccccccc"
                   style="fill:#f2f2f2;fill-opacity:1;stroke:#f2f2f2;stroke-opacity:1" />
                <path
                   d="m -123.64789,60.308068 h 3.33971 v -2.285062 h -0.29882 l 0.29882,-1.230418 h 2.10929 l 0.29881,1.230418 h -0.29881 v 2.285062 h 3.3397 v -2.285062 h -0.73825 l -2.0214,-8.243801 h 0.29882 v -2.285062 h -3.86703 v 2.285062 h 0.29881 l -2.0214,8.243801 h -0.73825 z m -0.17577,0.175774 v -2.63661 h 0.7734 l 1.95109,-7.892253 h -0.26366 v -2.63661 h 4.21858 v 2.63661 h -0.26366 l 1.95109,7.892253 h 0.77341 v 2.63661 h -3.69126 v -2.63661 h 0.26366 l -0.2285,-0.87887 h -1.82805 l -0.22851,0.87887 h 0.26366 v 2.63661 z m 0.17577,-0.175774 v -2.285062 h 0.73825 l 2.0214,-8.243801 h -0.29881 v -2.285062 h 3.86703 v 2.285062 h -0.29882 l 2.0214,8.243801 h 0.73825 v 2.285062 h -3.3397 v -2.285062 h 0.29881 l -0.29881,-1.230418 h -2.10929 l -0.29882,1.230418 h 0.29882 v 2.285062 z m 3.90218,-5.800542 h 0.98434 l -0.49217,-2.056556 z m 0,0 0.49217,-2.056556 0.49217,2.056556 z m 0.21093,-0.175774 h 0.56248 l -0.28124,-1.142531 z"
                   id="path18747"
                   sodipodi:nodetypes="ccccccccccccccccccccccccccccccccccccccccccccccccccccccccccccccccccccccccccc"
                   style="fill:#f2f2f2;fill-opacity:1;stroke:#f2f2f2;stroke-opacity:1" />
                <path
                   d="m -112.74992,60.308068 h 7.20674 v -3.023313 h -2.28507 v 0.738251 h -2.10928 v -8.261378 h 0.52732 v -2.285062 h -3.30455 v 2.285062 h 0.49216 v 8.261378 h -0.52732 z m -0.17577,0.175774 v -2.63661 h 0.52732 v -7.90983 h -0.49217 v -2.63661 h 3.6561 v 2.63661 h -0.52732 v 7.90983 h 1.75774 v -0.738251 h 2.63661 v 3.374861 z m 0.17577,-0.175774 v -2.285062 h 0.52732 v -8.261378 h -0.49216 v -2.285062 h 3.30455 v 2.285062 h -0.52732 v 8.261378 h 2.10928 v -0.738251 h 2.28507 v 3.023313 z"
                   id="path18749"
                   sodipodi:nodetypes="ccccccccccccccccccccccccccccccccccccccccccccc"
                   style="fill:#f2f2f2;fill-opacity:1;stroke:#f2f2f2;stroke-opacity:1" />
                <path
                   d="m -101.51798,60.308068 h 3.726409 l 1.915936,-1.915937 v -8.999629 l -1.915936,-1.915936 h -3.726409 l -1.91594,1.915936 v 8.999629 z m -2.09171,-1.845627 v -9.140248 l 2.0214,-2.021401 h 3.867028 l 2.021401,2.021401 v 9.140248 l -2.021401,2.021401 h -3.867028 z m 0.17577,-0.07031 v -8.999629 l 1.91594,-1.915936 h 3.726409 l 1.915936,1.915936 v 8.999629 l -1.915936,1.915937 h -3.726409 z m 2.28507,-0.369125 h 2.988153 v -8.261378 h -2.988153 z m 0,0 v -8.261378 h 2.988153 v 8.261378 z m 0.17577,-0.175774 h 2.636609 v -7.90983 h -2.636609 z"
                   id="path18751"
                   sodipodi:nodetypes="cccccccccccccccccccccccccccccccccccccccccc"
                   style="fill:#f2f2f2;fill-opacity:1;stroke:#f2f2f2;stroke-opacity:1" />
                <path
                   d="m -91.850424,60.308068 h 3.726409 l 1.915937,-1.915937 v -4.763475 h -4.042802 v 2.285062 h 1.75774 v 2.109288 h -2.988158 v -8.261378 h 2.988158 v 1.406192 h 2.285062 v -3.691254 h -2.285062 v 0.509744 l -0.509745,-0.509744 h -2.847539 l -1.915936,1.915936 v 8.999629 z m -2.09171,-1.845627 v -9.140248 l 2.021401,-2.021401 h 2.988158 l 0.263661,0.263661 v -0.263661 h 2.63661 v 4.042802 h -2.63661 v -1.406192 h -2.63661 v 7.90983 h 2.63661 v -1.75774 h -1.75774 v -2.63661 h 4.39435 v 5.009559 l -2.021401,2.021401 h -3.867028 z m 0.175774,-0.07031 v -8.999629 l 1.915936,-1.915936 2.742074,-0.263661 0.61521,0.773405 v -0.509744 h 2.285062 v 3.691254 h -2.285062 v -1.406192 h -2.988158 v 8.261378 h 2.988158 v -2.109288 h -1.75774 v -2.285062 h 4.042802 v 4.763475 l -1.915937,1.915937 h -3.726409 z"
                   id="path18753"
                   sodipodi:nodetypes="ccccccccccccccccccccccccccccccccccccccccccccccccccccccccccccccc"
                   style="fill:#f2f2f2;fill-opacity:1;stroke:#f2f2f2;stroke-opacity:1" />
              </g>
              <path
                 d="m -147.04328,60.220181 h 3.72641 l 1.91594,-1.915937 v -2.126865 h -2.28506 v 1.75774 h -2.98816 v -8.261378 h 2.98816 v 1.406192 h 2.28506 v -3.691254 h -2.28506 v 0.509745 l -0.50975,-0.509745 h -2.84754 l -1.91593,1.915937 v 8.999628 z m -2.09171,-1.845627 v -9.140248 l 2.0214,-2.021401 h 2.98816 l 0.26366,0.263661 v -0.263661 h 2.63661 v 4.042802 h -2.63661 v -1.406192 h -2.63661 v 7.90983 h 2.63661 v -1.75774 h 2.63661 v 2.372949 l -2.0214,2.021401 h -3.86703 z m 0.43944,-0.175774 v -8.7887 l 1.75774,-1.75774 h 2.63661 l 0.87887,0.87887 v -0.87887 h 1.75774 v 3.163932 h -1.75774 V 49.41008 h -3.51548 v 8.7887 h 3.51548 v -1.75774 h 1.75774 v 1.75774 l -1.75774,1.75774 h -3.51548 z"
                 id="path47887"
                 style="font-size:17.5774px;line-height:1.25;font-family:'Varsity Two BC';-inkscape-font-specification:'Varsity Two BC, Normal';text-align:center;word-spacing:0px;text-anchor:middle;fill:#a63d40;stroke-width:0.439435" />
              <path
                 d="m -139.29166,60.220181 h 3.33971 v -2.285062 h -0.29882 l 0.29882,-1.230418 h 2.10929 l 0.29881,1.230418 h -0.29881 v 2.285062 h 3.3397 v -2.285062 h -0.73825 l -2.0214,-8.243801 h 0.29882 v -2.285062 h -3.86703 v 2.285062 h 0.29882 l -2.0214,8.243801 h -0.73826 z m -0.17577,0.175774 v -2.63661 h 0.77341 l 1.95109,-7.892253 h -0.26366 v -2.63661 h 4.21857 v 2.63661 h -0.26366 l 1.95109,7.892253 h 0.77341 v 2.63661 h -3.69126 v -2.63661 h 0.26367 l -0.22851,-0.87887 h -1.82805 l -0.22851,0.87887 h 0.26366 v 2.63661 z m 0.43944,-0.439435 v -1.75774 h 0.68551 l 2.14445,-8.771123 h -0.36913 v -1.75774 h 3.33971 v 1.75774 h -0.36913 l 2.14445,8.771123 h 0.68551 v 1.75774 h -2.81238 v -1.75774 h 0.36913 l -0.42186,-1.75774 h -2.53115 l -0.42186,1.75774 h 0.36913 v 1.75774 z m 3.30455,-5.27322 h 1.65227 l -0.82614,-3.410016 z m 0.33397,-0.263661 0.49216,-2.056556 0.49217,2.056556 z m 0.21093,-0.175774 h 0.56247 l -0.28124,-1.142531 z"
                 id="path47889"
                 style="font-size:17.5774px;line-height:1.25;font-family:'Varsity Two BC';-inkscape-font-specification:'Varsity Two BC, Normal';text-align:center;word-spacing:0px;text-anchor:middle;fill:#a63d40;stroke-width:0.439435" />
              <path
                 d="m -128.74527,60.220181 h 3.30456 v -2.285062 h -0.49217 v -8.261378 h 0.70309 v 0.738251 h 2.28507 v -3.023313 h -8.26138 v 3.023313 h 2.28506 v -0.738251 h 0.7031 v 8.261378 h -0.52733 z m -2.63661,-9.632415 v -3.374861 h 8.61293 v 3.374861 h -2.63661 v -0.738251 h -0.35155 v 7.90983 h 0.49217 v 2.63661 h -3.6561 v -2.63661 h 0.52732 v -7.90983 h -0.35155 v 0.738251 z m 0.43944,-0.439435 V 47.65234 h 7.73406 v 2.495991 h -1.75774 V 49.41008 h -1.23042 v 8.7887 h 0.49216 v 1.75774 h -2.77722 v -1.75774 h 0.52732 v -8.7887 h -1.23042 v 0.738251 z"
                 id="path47891"
                 style="font-size:17.5774px;line-height:1.25;font-family:'Varsity Two BC';-inkscape-font-specification:'Varsity Two BC, Normal';text-align:center;word-spacing:0px;text-anchor:middle;fill:#a63d40;stroke-width:0.439435" />
              <path
                 d="m -123.64788,60.220181 h 3.3397 v -2.285062 h -0.29881 l 0.29881,-1.230418 h 2.10929 l 0.29882,1.230418 h -0.29882 v 2.285062 h 3.33971 v -2.285062 h -0.73825 l -2.0214,-8.243801 h 0.29881 v -2.285062 h -3.86703 v 2.285062 h 0.29882 l -2.0214,8.243801 h -0.73825 z m -0.17578,0.175774 v -2.63661 h 0.77341 l 1.95109,-7.892253 h -0.26366 v -2.63661 h 4.21858 v 2.63661 h -0.26366 l 1.95109,7.892253 h 0.7734 v 2.63661 h -3.69125 v -2.63661 h 0.26366 l -0.22851,-0.87887 h -1.82805 l -0.2285,0.87887 h 0.26366 v 2.63661 z m 0.43944,-0.439435 v -1.75774 h 0.68552 l 2.14444,-8.771123 h -0.36912 v -1.75774 h 3.3397 v 1.75774 h -0.36912 l 2.14444,8.771123 h 0.68552 v 1.75774 h -2.81239 v -1.75774 h 0.36913 l -0.42186,-1.75774 h -2.53114 l -0.42186,1.75774 h 0.36912 v 1.75774 z m 3.30455,-5.27322 h 1.65228 l -0.82614,-3.410016 z m 0.33397,-0.263661 0.49217,-2.056556 0.49217,2.056556 z m 0.21093,-0.175774 h 0.56248 l -0.28124,-1.142531 z"
                 id="path47893"
                 style="font-size:17.5774px;line-height:1.25;font-family:'Varsity Two BC';-inkscape-font-specification:'Varsity Two BC, Normal';text-align:center;word-spacing:0px;text-anchor:middle;fill:#a63d40;stroke-width:0.439435" />
              <path
                 d="m -112.74991,60.220181 h 7.20673 v -3.023313 h -2.28506 v 0.738251 h -2.10929 v -8.261378 h 0.52732 v -2.285062 h -3.30455 v 2.285062 h 0.49217 v 8.261378 h -0.52732 z m -0.17578,0.175774 v -2.63661 h 0.52733 v -7.90983 h -0.49217 v -2.63661 h 3.6561 v 2.63661 h -0.52732 v 7.90983 h 1.75774 v -0.738251 h 2.63661 v 3.374861 z m 0.43944,-0.439435 v -1.75774 h 0.52732 v -8.7887 h -0.49217 v -1.75774 h 2.77723 v 1.75774 h -0.52732 v 8.7887 h 2.63661 v -0.738251 h 1.75774 v 2.495991 z"
                 id="path47895"
                 style="font-size:17.5774px;line-height:1.25;font-family:'Varsity Two BC';-inkscape-font-specification:'Varsity Two BC, Normal';text-align:center;word-spacing:0px;text-anchor:middle;fill:#a63d40;stroke-width:0.439435" />
              <path
                 d="m -101.51797,60.220181 h 3.726406 l 1.915937,-1.915937 v -8.999628 l -1.915937,-1.915937 h -3.726406 l -1.91594,1.915937 v 8.999628 z m -2.09171,-1.845627 v -9.140248 l 2.0214,-2.021401 h 3.867026 l 2.021401,2.021401 v 9.140248 l -2.021401,2.021401 h -3.867026 z m 0.43943,-0.175774 v -8.7887 l 1.75774,-1.75774 h 3.515482 l 1.75774,1.75774 v 8.7887 l -1.75774,1.75774 h -3.515482 z m 1.75774,0 h 3.515482 v -8.7887 h -3.515482 z m 0.26366,-0.263661 v -8.261378 h 2.988161 v 8.261378 z m 0.17578,-0.175774 h 2.636607 v -7.90983 h -2.636607 z"
                 id="path47897"
                 style="font-size:17.5774px;line-height:1.25;font-family:'Varsity Two BC';-inkscape-font-specification:'Varsity Two BC, Normal';text-align:center;word-spacing:0px;text-anchor:middle;fill:#a63d40;stroke-width:0.439435" />
              <path
                 d="m -91.850416,60.220181 h 3.726409 l 1.915937,-1.915937 v -4.763475 h -4.042802 v 2.285062 h 1.75774 v 2.109288 h -2.988158 v -8.261378 h 2.988158 v 1.406192 h 2.285062 v -3.691254 h -2.285062 v 0.509745 l -0.509745,-0.509745 h -2.847539 l -1.915937,1.915937 v 8.999628 z m -2.091711,-1.845627 v -9.140248 l 2.021402,-2.021401 h 2.988158 l 0.263661,0.263661 v -0.263661 h 2.63661 v 4.042802 h -2.63661 v -1.406192 h -2.63661 v 7.90983 h 2.63661 v -1.75774 h -1.75774 v -2.63661 h 4.39435 v 5.009559 l -2.021401,2.021401 h -3.867028 z m 0.439435,-0.175774 v -8.7887 l 1.757741,-1.75774 h 2.63661 l 0.87887,0.87887 v -0.87887 h 1.75774 v 3.163932 h -1.75774 V 49.41008 h -3.51548 v 8.7887 h 3.51548 v -2.63661 h -1.75774 v -1.75774 h 3.51548 v 4.39435 l -1.75774,1.75774 h -3.51548 z"
                 id="path47899"
                 style="font-size:17.5774px;line-height:1.25;font-family:'Varsity Two BC';-inkscape-font-specification:'Varsity Two BC, Normal';text-align:center;word-spacing:0px;text-anchor:middle;fill:#a63d40;stroke-width:0.439435" />
            </g>
          </g>
        </g>
      </g>
      <ellipse
         style="fill:none;fill-opacity:1;stroke:none;stroke-width:2.44397;stroke-linecap:round;stroke-linejoin:round;stroke-miterlimit:4;stroke-dasharray:none;stroke-opacity:1;paint-order:fill markers stroke;stop-color:#000000"
         id="path15655"
         cy="103.5733"
         cx="-445.51044"
         ry="76.734383"
         rx="107.604" />
    </g>
  </g>
</svg>
