<?xml version="1.0" standalone="no"?>
<!DOCTYPE svg PUBLIC "-//W3C//DTD SVG 20010904//EN"
 "http://www.w3.org/TR/2001/REC-SVG-20010904/DTD/svg10.dtd">
<svg version="1.0" xmlns="http://www.w3.org/2000/svg"
 width="700.000000pt" height="700.000000pt" viewBox="0 0 700.000000 700.000000"
 preserveAspectRatio="xMidYMid meet">
<metadata>
Created by potrace 1.14, written by Peter Selinger 2001-2017
</metadata>
<g transform="translate(0.000000,700.000000) scale(0.100000,-0.100000)"
fill="#000000" stroke="none">
<path d="M288 6802 c-33 -4 -84 -52 -90 -84 -2 -13 -4 -1467 -3 -3233 0 -2813
2 -3213 15 -3233 8 -13 31 -32 50 -41 33 -17 211 -18 3250 -17 3069 1 3216 2
3241 19 59 39 55 -201 54 3294 0 2981 -1 3220 -17 3241 -9 13 -27 31 -40 40
-21 16 -259 17 -3228 17 -1763 0 -3217 -1 -3232 -3z"/>
</g>
</svg>
