<?xml version="1.0" encoding="UTF-8" standalone="no"?>
<!-- Created with Inkscape (http://www.inkscape.org/) -->

<svg
   width="66.145836mm"
   height="66.145836mm"
   viewBox="0 0 66.145836 66.145836"
   version="1.1"
   id="svg5"
   inkscape:version="1.1.1 (3bf5ae0d25, 2021-09-20)"
   sodipodi:docname="real.svg"
   inkscape:export-filename="C:\Users\garfu\OneDrive - BYU-Idaho\Documents\GitHub\wdd131\unit4\creditcard\images\favicon.png"
   inkscape:export-xdpi="96"
   inkscape:export-ydpi="96"
   xmlns:inkscape="http://www.inkscape.org/namespaces/inkscape"
   xmlns:sodipodi="http://sodipodi.sourceforge.net/DTD/sodipodi-0.dtd"
   xmlns="http://www.w3.org/2000/svg"
   xmlns:svg="http://www.w3.org/2000/svg">
  <sodipodi:namedview
     id="namedview7"
     pagecolor="#ffffff"
     bordercolor="#666666"
     borderopacity="1.0"
     inkscape:pageshadow="2"
     inkscape:pageopacity="0.0"
     inkscape:pagecheckerboard="0"
     inkscape:document-units="mm"
     showgrid="false"
     inkscape:zoom="2.5620931"
     inkscape:cx="28.492329"
     inkscape:cy="171.14912"
     inkscape:window-width="2560"
     inkscape:window-height="1369"
     inkscape:window-x="-8"
     inkscape:window-y="-8"
     inkscape:window-maximized="1"
     inkscape:current-layer="g930" />
  <defs
     id="defs2" />
  <g
     inkscape:label="Layer 1"
     inkscape:groupmode="layer"
     id="layer1">
    <g
       id="g930">
      <rect
         style="fill:#6cac9f;fill-opacity:1;stroke-width:0.448814;stroke-linecap:round;stroke-linejoin:round;paint-order:fill markers stroke;stop-color:#000000"
         id="rect846"
         width="66.145836"
         height="66.145836"
         x="0"
         y="0"
         rx="0"
         ry="10.487011" />
      <path
         id="rect4045"
         style="fill:#424242;fill-opacity:1;stroke-width:0.893395;stroke-linecap:round;stroke-linejoin:round;paint-order:fill markers stroke;stop-color:#000000"
         d="M 0,10.487011 H 66.145833 V 23.716178 H 0 Z" />
      <g
         id="g1102"
         transform="translate(3.0059931,3.2013213)">
        <path
           id="rect4045-6"
           style="fill:#7fbbac;fill-opacity:1;stroke-width:0.538998;stroke-linecap:round;stroke-linejoin:round;paint-order:fill markers stroke;stop-color:#000000"
           d="M 3.3770647,29.696233 H 45.870417 v 7.495509 H 3.3770647 Z" />
        <path
           id="path10621"
           style="fill:#95c7bb;fill-opacity:1;stroke-width:0.272814;stroke-linecap:round;stroke-linejoin:round;paint-order:fill markers stroke;stop-color:#000000"
           d="m 45.870417,29.696233 h 10.886368 v 7.495509 H 45.870417 Z" />
        <path
           style="fill:#000000;fill-opacity:1;stroke-width:0.209457"
           d="M 10.420057,34.128222 C 9.9330224,33.686388 9.3617534,33.262186 9.1505697,33.18555 8.6572667,33.006537 8.8060784,32.542388 9.3841128,32.457131 c 0.2888721,-0.0426 0.7692752,0.233126 1.3684952,0.785469 0.507849,0.468117 1.043665,0.851124 1.190702,0.851124 0.147036,0 0.676362,-0.377025 1.17628,-0.837834 0.645495,-0.594996 1.09378,-0.837832 1.546676,-0.837832 0.452894,0 0.901181,0.242836 1.546675,0.837832 0.499918,0.460809 1.029245,0.837834 1.176281,0.837834 0.147037,0 0.676363,-0.377025 1.17628,-0.837834 0.645496,-0.594996 1.093782,-0.837832 1.546677,-0.837832 0.452894,0 0.90118,0.242836 1.546676,0.837832 0.499915,0.460809 1.029243,0.837834 1.17628,0.837834 0.147037,0 0.676362,-0.377025 1.17628,-0.837834 0.645496,-0.594996 1.093782,-0.837832 1.546676,-0.837832 0.452895,0 0.901181,0.242836 1.546675,0.837832 0.499918,0.460809 1.029244,0.837834 1.176282,0.837834 0.147037,0 0.676363,-0.377025 1.176281,-0.837834 0.645493,-0.594996 1.093779,-0.837832 1.546675,-0.837832 0.452894,0 0.901181,0.242836 1.546675,0.837832 0.499918,0.460809 1.029242,0.837834 1.176281,0.837834 0.147038,0 0.676364,-0.377025 1.176281,-0.837834 0.645494,-0.594996 1.09378,-0.837832 1.546676,-0.837832 0.452895,0 0.90118,0.242836 1.546675,0.837832 0.499917,0.460809 1.029243,0.837834 1.176281,0.837834 0.147038,0 0.682853,-0.383007 1.1907,-0.851124 0.599221,-0.552343 1.079624,-0.828076 1.368495,-0.785469 0.578035,0.08526 0.726849,0.549406 0.233545,0.728419 -0.211184,0.07663 -0.782454,0.500838 -1.269489,0.942672 -1.192619,1.081934 -1.866958,1.074358 -3.069925,-0.0345 -0.499919,-0.460808 -1.029245,-0.837833 -1.176282,-0.837833 -0.147037,0 -0.676364,0.377025 -1.176282,0.837833 -1.214941,1.119894 -1.878409,1.119894 -3.093349,0 -0.499917,-0.460808 -1.029244,-0.837833 -1.176282,-0.837833 -0.147038,0 -0.676364,0.377025 -1.176281,0.837833 -1.214943,1.119894 -1.878409,1.119894 -3.093349,0 -0.499918,-0.460808 -1.029245,-0.837833 -1.176283,-0.837833 -0.147037,0 -0.676362,0.377025 -1.17628,0.837833 -0.645497,0.594996 -1.093782,0.837833 -1.546676,0.837833 -0.452894,0 -0.901181,-0.242837 -1.546676,-0.837833 -0.499918,-0.460808 -1.029245,-0.837833 -1.17628,-0.837833 -0.147038,0 -0.676364,0.377025 -1.176282,0.837833 -0.645494,0.594996 -1.09378,0.837833 -1.546675,0.837833 -0.452894,0 -0.90118,-0.242837 -1.546676,-0.837833 -0.499918,-0.460808 -1.029245,-0.837833 -1.17628,-0.837833 -0.147037,0 -0.676363,0.377025 -1.176281,0.837833 -1.202967,1.108856 -1.877309,1.116433 -3.069928,0.0345 z"
           id="path10489" />
        <text
           xml:space="preserve"
           style="font-style:normal;font-variant:normal;font-weight:normal;font-stretch:normal;font-size:5.7649px;line-height:1.25;font-family:'Franklin Gothic Demi Cond';-inkscape-font-specification:'Franklin Gothic Demi Cond, Normal';font-variant-ligatures:normal;font-variant-caps:normal;font-variant-numeric:normal;font-variant-east-asian:normal;text-align:center;word-spacing:0px;text-anchor:middle;fill:#000000;fill-opacity:1;stroke-width:0.13063"
           x="51.513439"
           y="35.38681"
           id="text12375"><tspan
             sodipodi:role="line"
             id="tspan12373"
             style="font-style:normal;font-variant:normal;font-weight:normal;font-stretch:normal;font-size:5.76491px;font-family:'Franklin Gothic Demi Cond';-inkscape-font-specification:'Franklin Gothic Demi Cond, Normal';font-variant-ligatures:normal;font-variant-caps:normal;font-variant-numeric:normal;font-variant-east-asian:normal;fill:#000000;fill-opacity:1;stroke-width:0.13063"
             x="51.513439"
             y="35.38681">131</tspan></text>
      </g>
      <text
         xml:space="preserve"
         style="font-style:normal;font-variant:normal;font-weight:normal;font-stretch:normal;font-size:6.12209px;line-height:1.25;font-family:'Franklin Gothic Demi Cond';-inkscape-font-specification:'Franklin Gothic Demi Cond, Normal';font-variant-ligatures:normal;font-variant-caps:normal;font-variant-numeric:normal;font-variant-east-asian:normal;text-align:center;letter-spacing:0px;word-spacing:0px;text-anchor:middle;fill:#000000;fill-opacity:1;stroke-width:0.167379"
         x="33.020599"
         y="56.299839"
         id="text16104"><tspan
           sodipodi:role="line"
           id="tspan16102"
           style="font-style:normal;font-variant:normal;font-weight:normal;font-stretch:normal;font-size:6.12209px;font-family:'Franklin Gothic Demi Cond';-inkscape-font-specification:'Franklin Gothic Demi Cond, Normal';font-variant-ligatures:normal;font-variant-caps:normal;font-variant-numeric:normal;font-variant-east-asian:normal;fill:#000000;fill-opacity:1;stroke-width:0.167379"
           x="33.020599"
           y="56.299839"
           dx="-1.6086371e-08"
           dy="1.6086371e-08">1234 5678 9012 3456</tspan></text>
      <text
         xml:space="preserve"
         style="font-style:normal;font-variant:normal;font-weight:normal;font-stretch:normal;font-size:11.9734px;line-height:1.25;font-family:'Franklin Gothic Demi Cond';-inkscape-font-specification:'Franklin Gothic Demi Cond, Normal';font-variant-ligatures:normal;font-variant-caps:normal;font-variant-numeric:normal;font-variant-east-asian:normal;text-align:center;word-spacing:0px;text-anchor:middle;fill:#f2f2f2;fill-opacity:1;stroke-width:0.271311"
         x="33.35939"
         y="21.091753"
         id="text43255"><tspan
           sodipodi:role="line"
           id="tspan43253"
           style="font-style:normal;font-variant:normal;font-weight:normal;font-stretch:normal;font-size:11.9734px;font-family:'Franklin Gothic Demi Cond';-inkscape-font-specification:'Franklin Gothic Demi Cond, Normal';font-variant-ligatures:normal;font-variant-caps:normal;font-variant-numeric:normal;font-variant-east-asian:normal;fill:#f2f2f2;fill-opacity:1;stroke-width:0.271311"
           x="33.35939"
           y="21.091753">WDD 131</tspan></text>
    </g>
  </g>
</svg>
